<svg width="112" height="112" viewBox="0 0 112 112" fill="none" xmlns="http://www.w3.org/2000/svg">
<path fill-rule="evenodd" clip-rule="evenodd" d="M48.8346 47.7835C48.7563 47.9345 48.5271 49.4609 49.4273 49.4609C49.5846 49.4613 49.7367 49.4049 49.8558 49.3022C49.9749 49.1996 50.053 49.0574 50.0759 48.9018C50.266 47.1909 49.1477 47.1964 48.8346 47.7835ZM56.942 47.7612C56.9924 48.3539 57.0595 48.8794 57.6521 48.8794C57.8094 48.8798 57.9615 48.8234 58.0806 48.7207C58.1997 48.6181 58.2779 48.4759 58.3007 48.3203C58.3128 47.9605 58.2733 47.6009 58.1833 47.2524C57.859 46.6541 56.8582 46.7995 56.942 47.7612ZM53.0281 53.1624C53.2014 53.1624 54.7055 53.0897 55.0578 52.8157C55.164 52.7374 55.1528 52.5865 55.1528 52.4467C55.1193 50.8607 54.966 49.2794 54.6943 47.7164C54.6943 47.6326 54.6216 47.6158 54.5769 47.627C54.5322 47.6382 54.5098 47.7164 54.5154 47.8506C54.5154 48.3091 54.4763 48.4657 54.6384 51.0321C54.7447 52.7095 54.6999 52.2398 54.7335 52.5194C54.2091 52.7115 53.6708 52.8629 53.1232 52.9723C52.7597 53.0506 53.0169 53.1624 53.0281 53.1624ZM54.795 57.0316C54.3801 57.254 53.9227 57.3855 53.4531 57.4174C53.4293 57.4174 53.4066 57.4268 53.3898 57.4436C53.373 57.4604 53.3636 57.4831 53.3636 57.5068C53.3636 57.5306 53.373 57.5533 53.3898 57.5701C53.4066 57.5869 53.4293 57.5963 53.4531 57.5963C53.7157 57.6908 53.9964 57.7248 54.274 57.6958C54.5517 57.6668 54.8192 57.5756 55.0567 57.4289C55.2942 57.2822 55.4956 57.0838 55.6458 56.8485C55.796 56.6132 55.8913 56.3471 55.9244 56.0699C55.9274 56.0585 55.928 56.0466 55.9264 56.035C55.9247 56.0234 55.9208 56.0122 55.9148 56.002C55.9089 55.9919 55.901 55.9831 55.8916 55.976C55.8822 55.9689 55.8715 55.9638 55.8601 55.9608C55.8487 55.9579 55.8369 55.9572 55.8252 55.9589C55.8136 55.9605 55.8024 55.9644 55.7923 55.9704C55.7822 55.9764 55.7733 55.9843 55.7662 55.9937C55.7592 56.0031 55.754 56.0138 55.7511 56.0251C55.5247 56.4376 55.1953 56.7843 54.795 57.0316ZM29.7347 13.9113C31.1716 18.7143 36.2542 18.4794 36.8468 18.8373C36.8468 18.8932 38.0098 23.3718 38.4795 23.9869C38.7423 24.328 39.3741 24.1938 39.7935 24.1155C40.7775 23.9198 41.9182 23.8583 42.7513 23.1929C42.9637 23.0196 42.8407 22.3151 42.7848 22.0746C42.6069 21.0693 42.3603 20.0773 42.0468 19.1057C41.9235 18.8125 41.8189 18.5118 41.7336 18.2055C42.1195 17.8637 42.5391 17.562 42.9861 17.3053C43.7239 16.8027 44.3801 16.1898 44.9319 15.4881C45.9995 13.924 46.4821 12.0339 46.295 10.1495C46.1079 8.26511 45.263 6.50682 43.9087 5.18327C39.7655 1.11838 32.2731 2.44353 29.8409 7.57077C29.0078 9.34881 29.1699 12.0438 29.7347 13.9113ZM42.4941 22.9245C41.7504 23.5228 40.6545 23.6011 39.6984 23.7968C39.4412 23.8527 38.8318 24.0037 38.6696 23.7968C38.3532 23.3401 38.1256 22.828 37.9986 22.2871C39.447 22.083 40.8636 21.696 42.2145 21.1353C42.3973 21.7142 42.4915 22.3174 42.4941 22.9245ZM42.153 20.9061C40.7243 21.1723 39.3213 21.5614 37.9595 22.0691C37.8151 21.4201 37.6283 20.7813 37.4004 20.1568C38.845 20.0055 40.2618 19.6556 41.6106 19.1168C41.8362 19.7079 42.023 20.313 42.1698 20.9284L42.153 20.9061ZM30.1932 7.7441C32.5359 2.90201 39.6984 1.67751 43.6123 5.50757C44.8844 6.75532 45.6803 8.40859 45.862 10.1812C46.0438 11.9538 45.6 13.7342 44.6076 15.2141C43.6403 16.5784 41.6833 17.5177 41.3814 18.0098C41.2752 18.1831 41.4709 18.6248 41.5939 18.9379C40.9565 19.0609 40.2575 19.2119 39.6313 19.3517C39.4636 18.5857 38.6808 15.4937 38.39 14.7668C38.2782 14.476 38.1776 14.4984 37.8812 14.5823C36.2486 14.5823 34.4537 14.1685 33.8778 12.6309C33.8083 12.4507 33.7595 12.2631 33.7325 12.0718C33.6542 11.2666 34.2916 10.3273 34.9961 10.3944C34.8955 11.0094 34.9961 12.1836 35.5217 12.5359C36.0473 12.8881 36.64 12.329 36.64 11.8258C36.6101 11.4629 36.4922 11.1128 36.2963 10.8058C36.1005 10.4989 35.8326 10.2444 35.5161 10.0645C35.604 9.86488 35.7342 9.68678 35.8978 9.54252C36.0614 9.39827 36.2544 9.29132 36.4635 9.22909C36.6725 9.16685 36.8926 9.15083 37.1084 9.18212C37.3243 9.21341 37.5307 9.29128 37.7135 9.41031C37.2718 10.2714 37.7135 12.2451 38.4963 11.781C39.2791 11.3169 39.0219 10.1763 38.5354 9.5445C38.3006 9.23698 38.2503 9.32085 38.3677 9.23139C39.2791 8.56602 40.3134 9.33762 40.7496 10.3497C41.3758 11.7419 40.0339 13.4584 39.184 13.9784C39.1632 13.991 39.1483 14.0114 39.1426 14.035C39.1368 14.0585 39.1406 14.0835 39.1533 14.1042C39.1659 14.125 39.1862 14.1399 39.2098 14.1457C39.2334 14.1514 39.2583 14.1476 39.2791 14.135C40.319 13.5255 41.633 11.7307 41.0347 10.2211C40.4365 8.7114 38.9324 8.1299 37.9819 9.0301C37.7425 8.86588 37.4694 8.75745 37.1826 8.71281C36.8958 8.66816 36.6026 8.68844 36.3247 8.77214C36.0468 8.85584 35.7912 9.00083 35.5767 9.19644C35.3622 9.39204 35.1944 9.63327 35.0856 9.90235C34.0456 9.76815 33.1677 10.9815 33.2852 12.083C33.3483 12.5698 33.5323 13.0331 33.8205 13.4306C34.1086 13.8281 34.4916 14.1471 34.9346 14.3586C35.4602 14.6102 37.3277 15.0687 38.0657 14.8563C38.3229 15.4154 39.2567 18.6975 39.4244 19.3852C36.9419 19.9444 37.4451 20.2071 37.3221 19.8437C37.1767 19.3908 37.0873 18.7254 36.9643 18.6807C33.8778 17.9818 31.0934 17.4674 30.0534 13.8051C29.5446 12.0326 29.4104 9.40472 30.1932 7.7441ZM35.3819 10.5062C35.5938 10.6565 35.7708 10.8507 35.9011 11.0755C36.0313 11.3002 36.1117 11.5504 36.1367 11.809C36.1367 11.96 35.7957 12.3681 35.5776 11.9208C35.4107 11.4692 35.3513 10.9848 35.4043 10.5062H35.3819ZM38.021 9.65074C38.4683 10.0869 38.7479 11.1045 38.2614 11.4008C38.0928 11.1458 37.9837 10.8561 37.9421 10.5531C37.9004 10.2502 37.9274 9.94183 38.021 9.65074ZM21.247 30.9928C23.5227 30.2827 26.2792 30.8978 27.3416 33.4138C29.1811 37.6744 24.3167 39.8439 24.367 40.0675C24.4788 40.6267 24.6801 41.6051 24.764 42.1699C24.7707 42.2173 24.7959 42.2602 24.8342 42.289C24.8725 42.3178 24.9206 42.3303 24.9681 42.3236C25.0155 42.3169 25.0584 42.2917 25.0872 42.2534C25.1161 42.2151 25.1285 42.167 25.1218 42.1195C25.0547 41.5604 24.9821 40.7552 24.9038 40.1738C25.6943 39.8566 26.4258 39.4087 27.0676 38.8486C31.0151 34.191 26.6091 28.3146 20.9787 30.1541C20.0871 30.4141 19.2986 30.9451 18.7225 31.6735C18.1464 32.4019 17.8113 33.2915 17.7637 34.219C17.5847 36.422 19.3404 38.323 22.1752 38.077C22.2179 38.0695 22.2566 38.0471 22.2845 38.0139C22.3124 37.9807 22.3277 37.9387 22.3277 37.8953C22.3277 37.8519 22.3124 37.8099 22.2845 37.7767C22.2566 37.7434 22.2179 37.7211 22.1752 37.7136C19.6591 37.8422 18.3116 36.0362 18.552 34.3029C18.6077 33.5414 18.8961 32.8154 19.3782 32.2234C19.8603 31.6313 20.5127 31.2017 21.247 30.9928ZM63.0086 16.4051C63.0561 16.4177 63.1066 16.4109 63.1491 16.3863C63.1915 16.3616 63.2225 16.3211 63.2351 16.2737C63.2477 16.2262 63.2409 16.1757 63.2163 16.1332C63.1916 16.0908 63.1511 16.0598 63.1037 16.0472C60.6826 15.3651 59.9837 13.2236 60.7665 11.6524C61.0714 10.9507 61.5847 10.3597 62.2368 9.95966C62.8889 9.55958 63.6484 9.36974 64.412 9.4159C68.6167 9.52214 70.4618 13.3913 68.8851 16.1534C67.8395 18.0433 66.4417 18.5521 64.6525 18.787C64.596 18.7949 64.5436 18.821 64.5032 18.8614C64.4629 18.9017 64.4368 18.9541 64.4288 19.0106C64.3673 19.525 64.2331 20.537 64.1325 21.1241C64.1228 21.1708 64.1321 21.2195 64.1584 21.2593C64.1846 21.2992 64.2255 21.327 64.2723 21.3366C64.319 21.3462 64.3676 21.3369 64.4074 21.3107C64.4473 21.2845 64.4751 21.2435 64.4847 21.1968C64.6133 20.5929 64.7867 19.8829 64.9041 19.2846C65.7535 19.2389 66.5891 19.0499 67.3754 18.7254C69.2709 17.6072 70.4227 15.8403 70.2717 13.6038C69.9195 8.35355 62.2594 6.47487 60.0564 11.3673C59.2009 13.3578 60.2409 15.7788 63.0086 16.4051ZM94.074 42.6395C94.0099 41.6031 93.6402 40.6089 93.0117 39.7824C92.4069 39.102 91.6693 38.5525 90.8443 38.1679C90.0193 37.7833 89.1242 37.5716 88.2143 37.5458C87.2881 37.5029 86.3714 37.7489 85.5911 38.2497C84.8108 38.7506 84.2054 39.4815 83.8587 40.3415C82.9808 42.3711 84.0376 44.7363 86.7941 45.4072C86.8187 45.4183 86.8454 45.4238 86.8723 45.4235C86.8992 45.4231 86.9258 45.4169 86.95 45.4052C86.9743 45.3935 86.9957 45.3766 87.0127 45.3557C87.0298 45.3349 87.042 45.3105 87.0487 45.2844C87.0553 45.2583 87.0561 45.231 87.0511 45.2046C87.0461 45.1781 87.0353 45.1531 87.0196 45.1312C87.0039 45.1093 86.9835 45.0912 86.96 45.078C86.9365 45.0648 86.9104 45.057 86.8836 45.055C84.4793 44.3281 83.7636 42.2593 84.552 40.6602C84.8568 39.9585 85.3702 39.3675 86.0223 38.9674C86.6744 38.5673 87.4338 38.3775 88.1975 38.4237C88.973 38.4452 89.7359 38.6238 90.4404 38.9486C91.1448 39.2735 91.7761 39.7378 92.296 40.3135C92.8197 40.9971 93.1308 41.8196 93.1906 42.6787C93.5875 47.6102 88.2758 47.627 88.2255 48.0184C88.1584 48.5775 88.0354 49.5616 87.9291 50.1319C87.9195 50.1786 87.9288 50.2272 87.955 50.2671C87.9812 50.3069 88.0222 50.3347 88.0689 50.3444C88.1156 50.354 88.1643 50.3447 88.2041 50.3185C88.2439 50.2923 88.2718 50.2513 88.2814 50.2046C88.4156 49.6063 88.5833 48.8906 88.7007 48.2924C89.5517 48.2446 90.3887 48.0556 91.1777 47.7332C93.0452 46.6373 94.225 44.8984 94.074 42.6395ZM27.2521 46.4081C27.4926 45.4128 26.7713 44.3672 26.0556 44.4511C25.5914 44.4009 25.124 44.3878 24.6578 44.412C23.4444 44.7027 22.8741 46.2907 24.0148 47.0679C25.3231 47.9401 27.0173 47.3362 27.2521 46.4081ZM26.3855 46.2962C26.1869 46.4619 25.9437 46.5651 25.6866 46.5926C24.1657 46.8051 23.8414 45.4743 24.8646 45.0382L26.0668 44.8145C26.5868 44.8593 26.7042 45.972 26.3855 46.2683V46.2962ZM63.6684 23.26C62.3656 22.7847 60.9566 24.2553 61.8792 25.4965C62.8017 26.7378 64.6301 26.7378 65.1557 25.9103C65.6813 25.0828 65.3626 23.8303 64.6581 23.6738C64.5966 23.6458 64.1101 23.4222 63.6684 23.26ZM64.3729 25.4965C64.1228 25.5817 63.8549 25.6006 63.5953 25.5517C63.3357 25.5027 63.0931 25.3874 62.8912 25.217C62.726 25.0983 62.5902 24.9434 62.4942 24.7641C62.3321 24.3112 62.9136 23.8471 63.3385 23.8191L64.5462 23.9925C65.0159 24.2441 64.7811 25.34 64.3729 25.5133V25.4965ZM88.4379 52.7151C88.3261 52.6648 87.7502 52.4243 87.4539 52.3125C86.1455 51.8372 84.7421 53.3078 85.6647 54.549C86.5872 55.7903 88.41 55.7903 88.9412 54.9628C89.4723 54.1353 89.148 52.8716 88.4379 52.7151ZM88.1528 54.5658C87.9026 54.6504 87.6348 54.6691 87.3753 54.6201C87.1158 54.5712 86.8733 54.4562 86.6711 54.2862C86.5073 54.1638 86.3719 54.0074 86.2741 53.8278C86.1175 53.3804 86.6935 52.9164 87.1184 52.8884L88.3261 53.0617C88.7958 53.2966 88.561 54.3869 88.1528 54.5658Z" fill="black"/>
<path fill-rule="evenodd" clip-rule="evenodd" d="M83.8698 83.5568C82.7516 78.055 78.4015 69.5785 73.1792 67.4147L72.1281 65.2173C72.1206 65.2014 72.1097 65.1872 72.0962 65.1758C72.0828 65.1644 72.0671 65.1561 72.0501 65.1513C72.0331 65.1465 72.0153 65.1455 71.9979 65.1482C71.9805 65.1509 71.9639 65.1573 71.9491 65.167L70.8309 65.8883C70.4757 63.5149 69.3912 61.3108 67.7277 59.5812C68.8907 57.7864 70.7526 57.2385 72.676 57.1546C74.2695 57.0875 75.4437 56.9925 76.3663 55.6282C78.1946 52.9332 77.7641 50.3052 75.6171 47.8003C72.3461 43.9871 71.0601 45.1277 69.4666 43.0198C66.4361 39.0611 65.7484 33.207 61.2865 30.1597C55.5833 26.2961 52.5081 29.4105 51.3116 30.3722C49.5615 29.3098 45.6588 29.6789 43.9814 31.1158C42.5556 32.3347 40.6657 33.9115 39.9332 35.6728C38.3733 39.391 38.541 43.7914 36.2597 47.1629C35.7006 48.0016 34.7445 48.5663 34.0679 49.3603C33.1393 50.5246 32.3494 51.7931 31.714 53.14C30.8865 54.7056 30.2547 56.4445 31.0095 58.066C32.0215 60.2354 34.286 62.3042 36.7015 62.1477C38.0993 62.0526 39.95 61.2139 41.264 61.7675C42.0468 62.0918 42.3487 62.8466 42.9414 63.4784C44.2833 64.9713 47.4144 65.4242 49.1477 64.3898C47.2411 66.8164 44.3336 66.7325 39.2623 69.5282C31.4792 73.8112 28.6388 78.6756 27.8057 83.6575C27.487 85.2074 27.2518 86.7734 27.1012 88.3486C26.6203 96.4728 29.0861 106.772 37.0817 108.477C39.2735 108.947 41.784 109.249 43.9534 108.707C48.063 107.683 52.9666 104.916 56.5674 102.668C58.2448 101.622 64.4512 97.4345 67.3363 96.8865C67.5099 98.3788 67.8862 99.8404 68.4546 101.231C70.7638 105.978 74.4596 108.785 79.6372 107.566C82.992 106.778 83.9481 103.205 84.0376 99.7828C85.7206 96.1708 84.3842 86.1847 83.8698 83.5568ZM64.5239 57.3783C65.5191 57.5628 66.2013 58.4965 66.9393 59.257C68.8907 61.2083 70.2326 63.2995 70.6352 65.9665C69.0193 66.9953 67.9681 67.6439 67.9458 67.6775C67.9234 67.711 67.1462 65.7317 66.6765 65.4913C65.9739 65.1424 65.3365 64.6752 64.7922 64.1102C64.3729 63.6461 63.8585 62.8298 63.9256 62.2148C64.2228 62.0566 64.5472 61.9561 64.8817 61.9184V61.5718C63.154 61.6221 62.5613 63.1988 62.4048 63.5511C62.2929 63.8027 62.1364 64.0543 61.7785 64.0152C61.4207 63.976 61.2921 63.5623 61.4263 63.1932C61.5605 62.8242 61.8848 61.2027 64.1716 60.8505C64.2002 60.8464 64.2278 60.8368 64.2527 60.8221C64.2776 60.8074 64.2994 60.788 64.3168 60.7649C64.3342 60.7418 64.3469 60.7155 64.3541 60.6875C64.3613 60.6595 64.363 60.6303 64.3589 60.6017C64.3549 60.573 64.3452 60.5455 64.3306 60.5206C64.3159 60.4956 64.2964 60.4739 64.2733 60.4565C64.2502 60.4391 64.2239 60.4264 64.1959 60.4192C64.1679 60.412 64.1387 60.4103 64.1101 60.4144C63.6315 60.4752 63.1676 60.621 62.7402 60.8449C62.3561 61.0325 62.0151 61.2978 61.7388 61.6241C61.4626 61.9504 61.2571 62.3305 61.1355 62.7403C60.8671 63.5064 59.9278 63.1653 60.1515 62.5055C60.3765 61.8637 60.7114 61.2658 61.1411 60.7386C61.6183 60.2837 62.1915 59.9417 62.8185 59.7378C63.3105 59.5365 63.7299 59.6316 63.8417 59.4694C63.9536 59.3073 63.6908 58.7649 63.5566 58.6028C62.8353 57.7417 60.7609 58.4853 59.9669 57.5236C59.4581 56.8918 60.5261 56.8695 60.9566 56.8135C62.1643 56.6794 63.3106 57.149 64.5239 57.3783ZM66.5759 71.2336C64.9775 71.7545 63.347 72.171 61.6947 72.4804C62.2538 69.299 62.634 66.5704 62.5781 65.5807C63.8809 65.8323 65.3737 66.0113 67.0064 66.2796C67.4481 67.0121 67.6886 67.6272 67.7948 67.8005L66.7101 68.4882C66.6542 68.5609 66.6653 68.259 66.5759 71.2336ZM60.5037 87.3869C60.7513 88.4605 60.9269 89.5495 61.0293 90.6466C58.7368 90.5012 56.9868 90.5292 56.1257 90.4957C56.1592 88.9245 56.176 88.438 56.204 88.1082C57.6151 87.7505 59.0531 87.5093 60.5037 87.3869ZM51.7086 73.6155C54.8805 73.6381 58.0482 73.3798 61.1747 72.8439C60.1794 78.2115 58.6642 84.6639 57.9485 85.9555C56.3046 81.4713 56.4724 81.4545 51.7086 73.6155ZM58.4181 85.8828C59.3239 83.8532 60.6994 77.7978 61.6164 72.7544C63.2854 72.4416 64.9311 72.0157 66.5423 71.4796C66.369 77.5182 66.3187 85.0553 66.6821 91.1107C65.6198 91.0156 64.0766 90.8815 62.5781 90.764C62.483 89.8582 62.1084 86.7047 61.7897 85.8772C61.7058 85.6536 61.6052 85.5641 61.2306 85.5529C60.2955 85.5939 59.3648 85.7042 58.4461 85.8828H58.4181ZM60.4142 64.5519C59.848 64.2209 59.3956 63.7256 59.1171 63.1317C59.3759 63.2409 59.6459 63.3215 59.9222 63.3722C60.027 63.4902 60.1623 63.5771 60.3131 63.6234C60.464 63.6698 60.6247 63.6738 60.7777 63.635C61.0293 63.5567 60.8671 63.5231 61.0013 63.8754C61.0529 64.0173 61.1397 64.1437 61.2536 64.2428C61.3675 64.3419 61.5048 64.4103 61.6525 64.4416C61.8002 64.4729 61.9534 64.4661 62.0977 64.4218C62.2421 64.3776 62.3727 64.2973 62.4774 64.1885C62.6955 63.9928 62.7123 63.758 62.9751 63.2547C63.2323 63.2044 63.4839 63.1373 63.7299 63.0646C64.3953 64.8091 66.4808 65.6534 66.6262 65.782C64.1716 65.4186 61.9966 65.1893 60.4422 64.5519H60.4142ZM49.6957 63.881C51.0376 62.3266 50.7636 61.2139 49.3826 60.1124C46.5869 57.9206 46.9336 58.5077 45.7594 56.0587C44.3783 52.0833 45.5693 45.821 46.5925 41.7449C46.8721 40.6267 48.7787 39.4301 50.1654 39.609C52.0888 39.8551 51.2836 40.8671 52.9275 41.443C53.2128 41.5264 53.508 41.5716 53.8053 41.5772C53.8229 41.5827 53.8415 41.5847 53.8598 41.583C53.8782 41.5814 53.8961 41.5761 53.9125 41.5675C53.9288 41.559 53.9433 41.5473 53.9552 41.5331C53.967 41.5189 53.9759 41.5026 53.9814 41.4849C53.9869 41.4673 53.9889 41.4488 53.9873 41.4304C53.9856 41.412 53.9803 41.3941 53.9718 41.3778C53.9632 41.3614 53.9515 41.3469 53.9373 41.3351C53.9232 41.3232 53.9068 41.3143 53.8892 41.3088C53.0171 40.7858 52.2133 40.1566 51.4961 39.4357C51.8372 38.0435 52.7038 37.2831 54.3309 37.2719C55.4492 37.2719 56.3326 38.1218 57.1265 38.8486C58.0883 39.7265 59.1227 42.0972 59.0444 43.4C58.8675 44.9095 59.2214 46.4336 60.0452 47.7109C60.6044 48.6838 61.6555 49.5281 62.2817 50.35C62.6284 50.8085 62.4271 52.8549 62.2258 53.7551C61.963 54.5435 61.4039 56.0475 61.2753 56.3886C58.9381 56.4725 59.0388 57.7249 60.157 58.2617C59.1115 59.5141 56.5562 60.9064 58.3846 62.6621C58.776 63.484 59.4022 64.6078 60.2409 64.9489C60.8361 65.1901 61.4517 65.3773 62.0805 65.508C62.2035 66.3747 61.8009 69.243 61.1858 72.5811C57.9769 73.1149 54.7265 73.36 51.4737 73.3135C49.4553 70.0091 47.448 66.8779 46.9392 66.3747C48.0688 65.8004 49.0287 64.9407 49.7236 63.881H49.6957ZM45.8824 66.8276C47.0007 66.4082 46.4415 66.4809 46.7099 66.6878C46.9783 66.8947 48.8234 69.819 50.9649 73.2912C48.4265 73.252 45.5693 73.0619 44.4902 72.9389C44.8145 72.6817 43.9758 68.2646 43.6515 67.7054C44.4622 67.3811 45.2114 67.096 45.9104 66.8276H45.8824ZM43.2377 67.8788C43.6975 69.5252 44.0099 71.2092 44.1715 72.9109C41.7588 72.5652 39.3922 71.9519 37.1152 71.0826C39.0664 69.8345 41.1246 68.7624 43.2657 67.8788H43.2377ZM43.7465 108.304C41.6498 108.83 39.1952 108.522 37.0817 108.069C33.7772 107.359 31.4903 105.151 30.0031 102.321C27.6379 97.8482 26.9334 91.2002 27.6547 86.5426C27.8001 85.6088 27.9846 84.6863 28.1411 83.7469C29.0302 78.4184 32.2675 74.4038 36.7853 71.3677C41.2192 72.9948 44.1994 73.5651 51.1662 73.6043C55.9915 81.4321 56.0977 82.2149 57.4788 86.045C57.0539 86.1232 55.0857 86.5202 54.7502 86.7942C54.616 86.9004 54.616 87.1129 54.7502 90.4733C49.6621 90.5739 44.6859 91.3679 40.0059 94.3872C39.4468 90.3559 40.0898 89.137 41.3926 86.8277C43.439 83.199 43.07 82.528 41.7784 80.4648C41.5655 80.1863 41.4131 79.8663 41.3311 79.5255C41.3311 79.3913 40.7719 79.2068 41.5603 80.5934C42.6786 82.6287 42.9805 83.1095 41.0012 86.6041C39.553 89.1649 38.9603 90.4789 39.8326 94.5046C39.4412 94.7674 38.9939 95.0638 38.5634 95.4104C37.9056 95.8736 37.2884 96.3917 36.7182 96.9592C36.7071 96.9807 36.705 97.0058 36.7123 97.0288C36.7197 97.0519 36.7359 97.0711 36.7574 97.0822C36.7789 97.0934 36.8039 97.0955 36.827 97.0881C36.85 97.0808 36.8693 97.0646 36.8804 97.0431C37.0537 96.7356 39.9444 94.8066 40.7216 94.4096C45.0605 92.2234 49.8578 90.3335 57.7136 90.8535C57.6147 94.1776 57.9588 97.5001 58.7369 100.733C54.6999 103.283 48.9632 107.007 43.7745 108.304H43.7465ZM59.0835 100.51C58.3652 97.3565 58.0477 94.1253 58.1386 90.8926C66.6262 91.4518 63.9647 91.2728 66.7045 91.4518C66.8051 93.0844 66.9561 94.8569 67.1797 96.484C64.9879 96.8921 61.0461 99.2964 59.1115 100.51H59.0835ZM79.4024 107.163C74.4652 108.332 70.9595 105.637 68.7341 101.074C66.274 96.0423 66.6821 74.1858 66.8219 68.6168L71.9324 65.4521C78.8321 80.353 79.6596 81.762 81.2084 86.6991C83.2101 92.9894 85.8492 105.676 79.4303 107.163H79.4024ZM83.909 98.6087C83.7795 95.6147 83.3181 92.6443 82.5335 89.752C80.7611 82.8579 78.8432 79.4025 73.5371 68.2478L73.6936 68.1639C78.3792 70.6688 82.349 78.4464 83.389 83.6407C83.9593 86.3525 85.0496 95.2203 83.9369 98.6087H83.909Z" fill="black"/>
</svg>
