<svg width="112" height="112" viewBox="0 0 112 112" fill="none" xmlns="http://www.w3.org/2000/svg">
<path d="M18.5519 72.8046C16.3489 73.4029 10.0922 75.3766 9.1473 75.7009C9.1473 69.0696 10.2096 20.1903 10.3159 15.3146C10.3118 15.3008 10.3033 15.2886 10.2917 15.28C10.2801 15.2714 10.266 15.2667 10.2516 15.2667C10.2371 15.2667 10.2231 15.2714 10.2115 15.28C10.1999 15.2886 10.1914 15.3008 10.1873 15.3146C9.89653 19.6423 8.86773 72.9052 8.89009 75.7792C8.00107 76.0811 3.96973 77.4566 2.8347 77.8368C2.7676 77.8368 2.79556 77.9654 2.8347 77.943C4.80843 77.3335 8.81741 75.9972 8.86214 75.986C8.86214 77.9318 8.8845 79.8795 8.92923 81.829C8.92923 81.8527 8.93866 81.8755 8.95544 81.8922C8.97221 81.909 8.99497 81.9184 9.01869 81.9184C9.04242 81.9184 9.06518 81.909 9.08195 81.8922C9.09873 81.8755 9.10816 81.8527 9.10816 81.829V75.8966C10.9589 75.2815 17.2771 73.3805 18.5854 73.0338C18.6079 73.0219 18.626 73.0034 18.6375 72.9807C18.6489 72.9581 18.6531 72.9325 18.6494 72.9074C18.6458 72.8823 18.6344 72.8589 18.617 72.8405C18.5995 72.8221 18.5768 72.8096 18.5519 72.8046ZM62.276 61.6555C62.276 61.6555 60.9453 67.4034 57.4787 65.5694C54.0121 63.7355 56.2542 60.0284 56.3101 56.4052C56.366 52.7821 53.5144 50.3107 53.5144 50.3107C53.5144 50.3107 54.3699 57.1545 50.2155 58.0826C46.0612 59.0108 42.6505 55.1304 43.847 49.6397C45.0436 44.1491 45.8487 41.0906 45.8152 39.1728C45.7816 37.255 45.0715 36.6176 45.0715 36.6176C45.0715 36.6176 45.6866 40.9396 40.9172 43.3271C36.2708 45.6531 29.9414 49.6118 29.8352 57.2383C29.7289 65.0103 31.4567 67.353 29.7849 67.6717C27.2688 68.1526 28.8232 64.1548 28.0795 61.4374C27.8344 60.6211 27.4308 59.8611 26.8915 59.201C26.3523 58.5409 25.6882 57.9936 24.9372 57.5906C24.9372 57.5906 27.3303 61.4542 24.775 65.3458C22.2198 69.2373 16.5726 74.0067 23.9755 80.515C23.9755 80.515 23.3381 78.094 24.7247 76.5508C26.1114 75.0076 26.7208 74.7112 27.3974 73.1401C27.6749 72.5941 27.8348 71.996 27.867 71.3844C27.867 71.3844 31.384 76.1258 34.202 73.4084C37.02 70.6911 35.4489 66.9057 36.9026 65.0215C38.3564 63.1372 38.9434 63.2099 38.9434 63.2099C38.9434 63.2099 36.9026 65.9776 39.2118 69.802C41.521 73.6265 45.0715 69.8524 45.8152 67.0064C46.5588 64.1604 49.0917 64.8593 49.0917 64.8593C49.0917 64.8593 46.1898 65.5694 46.8048 68.3036C47.4199 71.0377 48.0517 71.0992 48.0517 71.0992C48.0517 71.0992 48.6108 68.7061 51.4065 69.3436C54.2022 69.981 55.572 72.5921 57.1935 72.2734C58.815 71.9547 59.3406 69.9306 59.3406 69.9306C59.3406 69.9306 61.4205 73.1289 61.1578 74.8286C60.895 76.5284 59.3406 78.5021 59.3406 78.5021C60.766 78.4918 62.1468 78.0036 63.2619 77.1156C64.377 76.2276 65.1619 74.9911 65.491 73.6041C66.9112 68.5216 62.276 61.6555 62.276 61.6555Z" fill="black"/>
<path d="M58.4013 60.8168C58.6689 60.6998 58.9098 60.5295 59.1095 60.3164C59.3091 60.1033 59.4633 59.8518 59.5627 59.5772C59.6621 59.3026 59.7046 59.0107 59.6875 58.7191C59.6705 58.4276 59.5943 58.1426 59.4637 57.8814C59.1287 57.3547 58.9201 56.7576 58.8542 56.1369C58.2626 56.8451 57.9085 57.7214 57.8422 58.6418C57.68 60.2689 58.4013 60.8168 58.4013 60.8168ZM48.3761 40.9341C48.1636 39.6146 49.9305 39.335 49.69 37.4954C49.4496 35.6559 48.0126 35.4993 48.0126 35.4993L48.3761 36.2038C48.7339 36.9139 48.678 38.0154 48.1356 39.2567C47.5933 40.498 48.3761 40.9341 48.3761 40.9341Z" fill="black"/>
<path d="M69.9864 56.6793C69.0783 56.8699 68.1851 57.1259 67.3138 57.4453V54.7838H67.3977C67.9568 54.7838 67.722 49.8411 67.3641 48.1301C67.4983 33.5927 67.8338 7.31349 67.8338 7.03392C67.8338 7.01613 67.8267 6.99906 67.8141 6.98648C67.8015 6.9739 67.7845 6.96683 67.7667 6.96683C67.7489 6.96683 67.7318 6.9739 67.7192 6.98648C67.7067 6.99906 67.6996 7.01613 67.6996 7.03392C67.1405 21.9348 67.0734 37.6911 67.0845 47.5486C66.7938 47.5095 66.1396 47.9903 65.4072 48.6334L55.6 26.2345C55.7733 19.3684 55.9075 11.8816 55.9075 5.13847C55.9075 5.06019 55.7845 5.06019 55.7789 5.13847C55.7398 5.83179 55.4993 15.762 55.2589 25.9717L43.1593 23.4836C43.3662 16.9082 43.5675 10.5285 43.5786 9.50529C43.5786 9.46056 43.5115 9.46056 43.5059 9.50529C43.4053 11.8481 43.1257 16.4273 42.8853 23.4836L31.7362 25.4629C31.7698 18.2445 31.7362 12.547 31.7362 12.3625C31.733 12.3539 31.7273 12.3465 31.7198 12.3413C31.7123 12.3361 31.7034 12.3333 31.6943 12.3333C31.6852 12.3333 31.6762 12.3361 31.6687 12.3413C31.6612 12.3465 31.6555 12.3539 31.6524 12.3625C31.6132 12.9216 31.5349 18.6024 31.4511 25.3511L20.6878 19.2845C20.7157 16.8299 20.7325 15.3259 20.7325 15.2364C20.7325 15.2254 20.7303 15.2145 20.7261 15.2043C20.7219 15.1941 20.7157 15.1849 20.7079 15.1771C20.7001 15.1693 20.6909 15.1631 20.6807 15.1589C20.6706 15.1547 20.6596 15.1525 20.6486 15.1525C20.6376 15.1525 20.6267 15.1547 20.6165 15.1589C20.6064 15.1631 20.5971 15.1693 20.5893 15.1771C20.5815 15.1849 20.5754 15.1941 20.5711 15.2043C20.5669 15.2145 20.5648 15.2254 20.5648 15.2364C20.5648 15.7955 20.5648 17.2045 20.5256 19.2454L11.5795 19.0553C11.4275 19.0508 11.28 19.1069 11.1693 19.2113C11.0587 19.3156 10.9941 19.4596 10.9896 19.6116C10.9852 19.7636 11.0413 19.9111 11.1456 20.0218C11.25 20.1324 11.394 20.197 11.546 20.2015L20.4921 20.4587C20.3243 33.9897 19.7987 67.9849 19.7876 68.2924C19.7876 68.3931 19.9385 68.3931 19.9385 68.2924C20.056 65.7204 20.4977 33.4417 20.6542 20.5258L31.4343 26.6762C31.3057 37.104 31.1715 49.4329 31.1659 49.6342C31.1659 49.7069 31.2777 49.7069 31.2833 49.6342C31.5741 43.6738 31.6915 34.4314 31.7306 26.6371L42.8462 24.6857C42.7232 28.5996 42.6113 33.2181 42.5554 38.5969C42.5554 38.664 42.6617 38.664 42.6617 38.5969C42.7232 36.8468 42.9245 30.8026 43.1202 24.6578L55.2254 27.3696C54.9682 38.2055 54.7221 48.9688 54.7165 49.1366C54.7165 49.1558 54.7242 49.1743 54.7378 49.188C54.7515 49.2016 54.77 49.2093 54.7892 49.2093C54.8085 49.2093 54.827 49.2016 54.8406 49.188C54.8543 49.1743 54.8619 49.1558 54.8619 49.1366C54.9178 47.5039 55.2757 38.6528 55.5552 27.9734L64.5014 49.4888C63.3831 50.5232 62.4102 51.5967 62.4102 51.5967C62.1754 52.2342 66.0166 54.2582 67.1125 54.7223V57.518C66.6987 57.6577 63.165 58.9382 61.7728 59.3072C61.7578 59.3134 61.7456 59.3248 61.7384 59.3393C61.7312 59.3538 61.7295 59.3704 61.7336 59.3861C61.7377 59.4017 61.7473 59.4154 61.7607 59.4245C61.774 59.4337 61.7903 59.4377 61.8063 59.4358C63.2042 59.0891 69.3434 57.1042 69.992 56.8246C70.0871 56.7855 70.0535 56.6737 69.9864 56.6793ZM41.9012 78.4127C41.7512 78.5644 41.6422 78.7517 41.5845 78.9572C41.5268 79.1626 41.5223 79.3793 41.5714 79.5869C41.6335 79.7697 41.7362 79.9361 41.8718 80.0736C42.0073 80.2111 42.1722 80.3161 42.3541 80.3809C43.0624 80.5921 43.8034 80.6717 44.5403 80.6157C44.5403 80.6157 47.0564 82.6845 47.1235 82.746C46.5644 83.2101 45.7872 82.9305 45.1554 82.8914C45.0492 82.8914 45.0492 83.0311 45.1554 83.0647C45.5024 83.2104 45.8795 83.2697 46.2544 83.2375C46.6294 83.2054 46.9909 83.0828 47.308 82.8802C47.4432 82.9948 47.5851 83.1012 47.733 83.1989C47.7456 83.2045 47.7598 83.2057 47.7732 83.2023C47.7866 83.1989 47.7985 83.191 47.8069 83.1801C47.8153 83.1691 47.8197 83.1556 47.8195 83.1417C47.8193 83.1279 47.8144 83.1146 47.8057 83.1038C47.6895 82.9812 47.5663 82.8655 47.4366 82.7572C47.5533 82.6172 47.637 82.4528 47.6818 82.2762C47.7265 82.0996 47.7311 81.9152 47.6951 81.7365C47.6592 81.5579 47.5837 81.3896 47.4741 81.244C47.3645 81.0984 47.2237 80.9792 47.062 80.8953C46.2996 80.5124 45.4467 80.3461 44.5963 80.4144C43.7911 79.7546 42.986 79.0949 42.1696 78.4407C42.2448 78.3799 42.3275 78.3292 42.4156 78.2897C42.6948 78.1973 42.9916 78.171 43.2826 78.2127C43.5737 78.2544 43.8511 78.3631 44.093 78.5301C44.1322 78.5301 44.1657 78.5301 44.1378 78.4742C43.868 78.1956 43.505 78.0262 43.1182 77.9983C42.7314 77.9705 42.3479 78.0862 42.041 78.3233L41.4819 77.8815C41.4316 77.8424 41.3645 77.9095 41.4092 77.9486L41.9012 78.4127ZM47.4926 81.857C47.5104 81.994 47.4987 82.1333 47.4582 82.2654C47.4177 82.3976 47.3493 82.5195 47.2577 82.623L44.8199 80.6157C45.8487 80.6269 47.3528 80.8114 47.487 81.857H47.4926ZM42.0522 78.5357C42.7959 79.1731 43.5507 79.7938 44.2887 80.42C43.7606 80.4243 43.2331 80.3832 42.712 80.297C41.5825 80.0118 41.4987 79.106 42.0466 78.5357H42.0522Z" fill="black"/>
<path d="M74.1521 93.0619C73.3301 92.3518 61.6722 83.8027 60.6155 83.087V82.1589C60.6155 82.1477 49.9025 74.1856 49.8354 74.2024C48.3817 74.577 30.1596 79.2346 28.9854 79.5869C28.9748 79.5889 28.9648 79.5935 28.9563 79.6002C28.9478 79.6069 28.9411 79.6156 28.9367 79.6255C28.9323 79.6354 28.9304 79.6462 28.9311 79.657C28.9318 79.6678 28.935 79.6782 28.9406 79.6875V80.1013C28.443 80.2634 22.1136 82.0918 22.1136 82.1645C22.1136 83.3274 22.2814 85.6702 22.2814 85.6814C22.136 85.6814 18.155 86.4865 18.1382 86.5257C18.1214 86.5648 18.0879 89.6792 18.1718 90.2998C18.1718 90.3278 39.1336 106.749 39.1728 106.744C39.8717 106.565 48.9911 103.702 49.7963 103.501C49.8215 103.493 49.8429 103.476 49.8564 103.453C49.8698 103.431 49.8743 103.404 49.869 103.378C49.8242 103.121 49.8019 102.869 49.7739 102.612C49.7739 102.612 51.3171 103.266 51.3674 103.249C54.191 102.383 61.4318 100.079 62.2202 99.8107C62.2642 99.7821 62.296 99.7383 62.3096 99.6877V99.0111C62.3096 99.0111 63.3049 99.4249 63.3496 99.4081C66.1453 98.3905 73.2183 96.0197 73.9731 95.7402C73.9952 95.7325 74.0134 95.7166 74.0239 95.6957C74.0343 95.6748 74.0362 95.6506 74.029 95.6284C74.0794 95.483 74.1521 93.5819 74.1744 93.1402C74.1798 93.1265 74.1805 93.1114 74.1765 93.0973C74.1724 93.0832 74.1638 93.0707 74.1521 93.0619ZM73.9284 93.0619C73.7719 93.0955 67.1405 95.0077 66.615 95.2034C66.5814 94.9015 66.615 92.4078 66.615 92.4078C66.4416 92.1841 62.3991 88.9915 61.7393 88.4603C62.4159 88.3205 65.2563 87.342 66.0335 87.1519C67.7332 88.4156 73.4643 92.7656 73.9284 93.0843V93.0619ZM59.391 98.1277L53.1175 99.8554C53.2182 99.436 53.056 96.344 53.056 96.3049L59.486 94.5548C59.4748 94.7002 59.3351 98.055 59.363 98.15L59.391 98.1277ZM53.0001 96.1092C52.8995 95.9694 45.8208 90.7639 45.0157 90.1656L49.17 89.0921C48.9898 89.1951 48.8477 89.3538 48.7651 89.5443C48.6824 89.7347 48.6637 89.9468 48.7116 90.1489C48.829 90.6409 49.3713 91.077 50.389 91.0826C50.6629 91.0826 50.9481 91.0547 51.2276 91.0267C51.3283 91.1162 52.7932 92.3407 53.4642 92.8495C52.9343 93.0317 52.3623 93.0531 51.8203 92.911C51.8042 92.9091 51.788 92.9131 51.7747 92.9222C51.7613 92.9314 51.7517 92.945 51.7476 92.9607C51.7435 92.9763 51.7452 92.993 51.7524 93.0075C51.7596 93.022 51.7718 93.0334 51.7868 93.0396C52.3892 93.2314 53.0395 93.2077 53.6263 92.9725C53.7997 93.1067 53.973 93.2465 54.1519 93.3751C54.3308 93.5037 54.3756 93.2688 54.2637 93.185L53.8276 92.8439C53.9903 92.7304 54.1112 92.5666 54.1719 92.3777C54.2325 92.1888 54.2294 91.9853 54.1631 91.7983C53.9171 91.0602 53.0784 90.7751 52.3739 90.736C52.0203 90.725 51.6665 90.7475 51.3171 90.803C51.0208 90.5514 49.7571 89.4332 49.4105 89.1256C49.6173 89.0138 51.1773 88.5665 51.7029 88.4156C51.7029 88.4156 59.0555 94.1746 59.3574 94.32C59.391 94.32 59.4357 94.32 59.4133 94.2641C59.2456 94.0236 52.4969 88.7398 51.9657 88.3485C53.3971 87.9682 58.8207 86.4642 58.9884 86.4194C58.9884 86.4194 66.1062 92.268 66.313 92.4022C64.0485 93.0955 54.7502 95.6507 52.9721 96.1316L53.0001 96.1092ZM34.9681 92.9501C34.7668 92.9501 32.7316 93.3471 32.5247 93.3918C32.5582 92.7768 32.7483 89.7742 32.7707 89.6233C33.4472 89.5338 36.2373 89.0641 36.4274 89.0082L36.6734 89.2151C36.1593 89.2231 35.6483 89.2964 35.1526 89.4332C35.1526 89.4332 34.9569 92.8159 34.9401 92.9725L34.9681 92.9501ZM34.9681 93.0563C34.9681 93.1905 34.9681 93.3191 34.9234 93.4477C34.8786 93.5763 37.5848 95.6843 37.9259 95.9638C37.501 96.0645 33.9113 97.1492 31.6524 97.2331C31.412 97.0486 27.1067 93.6043 25.2112 92.0499C25.8822 91.9716 29.483 91.1777 29.483 91.1777C29.7738 91.4013 31.7531 92.9669 32.4296 93.5596C33.2748 93.458 34.1118 93.2973 34.9345 93.0787L34.9681 93.0563ZM35.2644 89.5674C35.2644 89.5674 36.6734 89.3773 36.8803 89.3829C36.8803 89.3829 39.3908 91.5355 39.4132 91.5299C41.2024 91.1329 43.0252 90.6745 44.8032 90.216L52.7429 96.1707C51.8203 96.4167 45.7146 98.1053 45.6978 98.1221L35.2644 89.5674ZM46.9279 89.4723C46.872 89.4723 39.4467 91.4013 39.4132 91.4572L39.4691 87.5433C41.9349 87.0625 44.3727 86.4586 46.8049 85.8156C46.721 86.1343 46.8329 89.2039 46.8944 89.4947L46.9279 89.4723ZM53.6766 87.711C53.2629 87.8229 48.8513 88.9915 47.0509 89.4611C47.0509 89.1704 46.995 86.1063 46.9503 85.81C46.9503 85.81 51.7421 84.496 53.8835 83.9257C53.8668 84.0823 53.5928 87.1072 53.6766 87.711ZM49.2651 89.2319C49.5838 89.573 50.758 90.6409 51.004 90.8534C50.5255 90.9359 50.0347 90.9111 49.567 90.7807C48.6445 90.4788 48.6445 89.6345 49.2539 89.2319H49.2651ZM51.5016 91.0155C52.0194 90.9361 52.5483 90.9723 53.0504 91.1218C53.9786 91.4461 54.2134 92.3351 53.6095 92.7488C52.9554 92.2177 51.5464 91.0491 51.5072 91.0155H51.5016ZM60.7105 85.7932C60.6658 85.1894 60.6043 83.5231 60.6099 83.2939C62.3488 84.5352 64.1045 85.7541 65.8322 87.0177C65.1053 87.2246 62.3041 88.136 61.6219 88.3764C61.3256 88.136 59.3854 86.5648 59.0667 86.425C59.5755 86.2797 60.0843 86.1343 60.5763 85.9498C60.6211 85.9386 60.7217 85.8491 60.7161 85.7932H60.7105ZM60.5484 85.7932L53.7941 87.6663C53.7941 87.0625 53.973 84.0431 54.0233 83.9034C54.068 83.9034 58.871 82.6453 60.4198 82.3042C60.3862 82.8634 60.554 85.8044 60.554 85.8044L60.5484 85.7932ZM49.8354 74.3646C51.155 75.4828 59.6594 81.6333 60.308 82.1253C58.2056 82.595 56.1256 83.1262 54.0457 83.6797C53.4139 83.2044 44.2553 76.042 44.1043 75.9357C44.4006 75.8798 48.2363 74.879 49.8354 74.3646ZM43.8862 76.042C44.1658 76.3103 53.1175 83.3107 53.7997 83.7859L46.7714 85.687C46.1451 85.1838 37.227 78.5133 36.5672 77.9262C39.0274 77.2963 41.4671 76.6682 43.8862 76.042ZM36.2988 77.9933C36.9754 78.4686 46.2458 85.5025 46.5924 85.7317C45.6811 85.9721 40.8613 87.1743 39.3629 87.4874L29.0245 79.7322C30.0757 79.5198 36.2094 77.9933 36.2988 77.971V77.9933ZM28.9574 80.2914C28.991 81.1692 29.0189 81.9688 29.0525 82.9025L36.215 88.902C36.0864 88.902 33.341 89.3437 32.6309 89.4947C32.5806 89.4947 22.3317 82.226 22.3317 82.226C23.4835 81.9352 28.4654 80.4032 28.9574 80.269V80.2914ZM18.4513 86.5928C18.524 86.5928 22.1528 85.8659 22.3317 85.8435C22.3317 85.8435 28.3312 90.3557 29.3991 91.1665C28.6779 91.2224 25.7368 91.8263 24.9708 91.9045C24.2328 91.2951 18.7868 86.822 18.4513 86.5928ZM25.2504 95.757C25.2504 95.455 25.0882 92.7097 25.0491 92.1114C25.4628 92.4525 29.7682 95.9527 31.5182 97.3393C31.5182 97.3393 31.7028 100.565 31.7251 100.834C31.4623 100.644 27.1458 97.289 25.256 95.757H25.2504ZM31.8314 97.4343C33.9252 97.0996 36.0005 96.6573 38.0489 96.1092C38.3844 96.372 44.6914 101.141 45.2338 101.522C44.2273 101.762 39.2846 102.88 39.2678 102.88C36.707 101.203 34.2524 99.3354 31.8369 97.4343H31.8314ZM39.2343 106.587C39.2343 106.587 39.279 103.048 39.2958 103.02C39.7487 102.959 44.2553 101.902 45.2785 101.673C45.5086 101.757 45.7281 101.868 45.9327 102.002L49.4328 100.996C49.5894 101.773 49.5111 102.573 49.6453 103.344C48.9967 103.579 40.0059 106.302 39.2399 106.587H39.2343ZM46.0613 101.863C46.0613 101.863 45.9383 99.4976 45.8712 98.2786C48.1972 97.6301 50.525 96.9889 52.8547 96.3552L53.028 99.8778L46.0613 101.863ZM62.1195 99.6261C60.7105 100.051 52.1726 102.768 51.4122 103.014C51.3674 102.187 51.2276 100.487 51.2165 100.476C51.2053 100.465 58.843 98.4632 62.1699 97.4008C62.1251 97.5797 62.1307 99.2739 62.1251 99.6429L62.1195 99.6261ZM59.4972 98.0997C59.4972 98.0159 59.5755 94.6499 59.6034 94.4989C60.4086 94.2808 64.9655 93.0116 66.4304 92.5755C66.3686 93.727 66.4116 94.8817 66.559 96.0253L59.4972 98.0997ZM66.7044 96.1707C66.692 95.8861 66.664 95.6024 66.6206 95.3208C67.1014 95.2873 73.7718 93.3807 73.9508 93.308C73.9508 93.7049 73.839 95.4718 73.8613 95.6284C71.1216 96.646 64.1324 98.9496 63.4279 99.2068C63.4279 98.5414 63.467 97.0765 63.467 97.0765C63.467 97.0765 66.6988 96.1987 66.7044 96.1707ZM86.6263 13.7379V13.6596C86.5587 13.5809 86.4686 13.5248 86.3682 13.4988C86.2678 13.4728 86.1618 13.478 86.0645 13.5139C85.9671 13.5498 85.8831 13.6146 85.8236 13.6996C85.7641 13.7846 85.7321 13.8857 85.7317 13.9895C85.7602 13.9021 85.8098 13.8232 85.8761 13.7596C85.9424 13.696 86.0234 13.6497 86.1118 13.6248C86.2002 13.5999 86.2935 13.5972 86.3832 13.617C86.4729 13.6367 86.5564 13.6782 86.6263 13.7379ZM88.3987 14.8841C88.3888 14.8723 88.3764 14.8629 88.3624 14.8564C88.3484 14.8499 88.3331 14.8465 88.3177 14.8465C88.3022 14.8465 88.287 14.8499 88.273 14.8564C88.259 14.8629 88.2466 14.8723 88.2366 14.8841C88.2349 15.1009 88.2612 15.317 88.3149 15.5271C88.3149 15.6054 88.4602 15.5886 88.4547 15.5271C88.4633 15.3113 88.4445 15.0952 88.3987 14.8841ZM86.2293 14.5374C86.222 14.5291 86.2129 14.5224 86.2028 14.5179C86.1927 14.5133 86.1817 14.5109 86.1706 14.5109C86.1595 14.5109 86.1485 14.5133 86.1384 14.5179C86.1283 14.5224 86.1192 14.5291 86.1119 14.5374C86.0597 14.8127 86.0597 15.0953 86.1119 15.3705C86.1119 15.4376 86.2405 15.4265 86.2349 15.3705C86.2579 15.0932 86.256 14.8144 86.2293 14.5374ZM87.4091 17.0423V16.9976C86.7437 16.9976 86.7325 16.8411 86.7214 16.8299C86.7102 16.8187 87.1071 15.829 87.1798 15.6166C87.1798 15.5886 87.1407 15.5662 87.1295 15.6166C87.0289 15.8178 86.4921 16.9193 86.5089 16.9697C86.5592 17.1094 87.2246 17.0983 87.4091 17.0423ZM88.7734 17.8531C88.8395 17.9388 88.8975 18.0306 88.9467 18.1271C88.6951 18.2165 88.7174 18.9434 89.1032 18.9043C89.1535 18.9032 89.2016 18.8839 89.2387 18.8499C89.2757 18.816 89.2991 18.7697 89.3045 18.7197C89.3157 18.4514 88.8628 17.9481 88.7734 17.8531ZM96.5621 28.6499C95.151 28.9134 93.7066 28.9474 92.2847 28.7506V28.7953C93.006 28.9574 95.2593 29.3097 96.6012 28.7953C96.6515 28.745 96.618 28.6387 96.5621 28.6499ZM86.2405 28.3704C85.0126 28.6586 83.7295 28.6084 82.5279 28.225C82.4887 28.225 82.4775 28.2697 82.5279 28.2865C83.728 28.7579 85.0493 28.8246 86.2908 28.4766C86.3244 28.4598 86.2964 28.3536 86.2405 28.3704ZM88.6783 25.5747C88.2813 25.8319 85.6646 36.9363 85.6255 37.2382C85.5863 37.5401 87.4035 40.2575 87.5209 40.2575C88.6858 39.6133 89.8065 38.8922 90.8757 38.0993C91.0546 37.8812 90.2774 26.0556 90.1768 25.7592C90.0761 25.4629 88.6783 25.5747 88.6783 25.5747Z" fill="black"/>
<path d="M105.201 14.7108C102.618 12.916 96.646 9.43817 96.5789 9.41022C96.5118 9.38226 96.4894 9.36549 95.7905 9.85193C95.3857 9.2721 94.889 8.76219 94.32 8.34227C94.1176 8.21994 93.8856 8.15527 93.649 8.15527C93.4125 8.15527 93.1805 8.21994 92.9781 8.34227C92.5007 8.58929 92.0679 8.91433 91.6977 9.30398C91.0682 9.26406 90.4378 9.3653 89.8525 9.60032C89.8525 9.60032 88.2422 6.20639 85.7597 7.00595C83.2771 7.80551 84.7756 10.8416 84.7756 10.8416C84.7083 10.9166 84.6448 10.995 84.5855 11.0764C84.463 10.9325 84.3263 10.8014 84.1773 10.685C83.8922 10.5397 80.2634 11.4399 78.4742 12.2059C76.3317 13.1531 74.3567 14.4409 72.6257 16.0192C71.3676 17.4561 71.1663 18.2557 71.5577 19.9331C72.5418 24.1993 75.7624 28.253 79.3353 30.8362C79.1172 32.3458 78.9383 33.8555 78.8488 35.3763C78.6252 39.0219 79.2011 40.7663 80.9959 42.1418C76.8863 54.5601 79.2682 87.4315 79.2682 87.4315C79.5783 87.723 79.9671 87.9174 80.3864 87.9906C80.4144 88.3037 80.4983 89.148 80.5094 89.2599C80.0006 89.6442 79.46 89.9847 78.8935 90.2775C78.6979 90.3425 78.5292 90.4705 78.4139 90.6414C78.2986 90.8123 78.2431 91.0166 78.2561 91.2224C78.1779 91.7144 80.3361 91.6921 80.94 91.6362C81.5438 91.5803 81.5662 91.1833 81.6892 91.133C81.8122 91.0826 81.7898 91.3734 81.7731 91.5243C81.7563 91.6753 82.3322 91.6921 82.6845 91.6977C83.0367 91.7033 82.992 88.287 83.0143 88.0689C83.3975 88.0148 83.7729 87.9153 84.1326 87.7726C88.1304 77.0372 88.4491 70.2438 88.4491 70.2438C87.0121 58.8822 87.2749 51.155 87.6999 51.2333C88.1248 51.3116 87.4315 54.2135 88.259 64.7867C89.0865 75.3598 92.5531 88.6895 92.5531 88.6895C93.0062 88.7712 93.4636 88.8272 93.923 88.8573C93.9566 89.1928 94.0572 90.0594 94.0684 90.1656C93.5719 90.5336 93.0465 90.8609 92.4972 91.1441C92.3015 91.2085 92.133 91.3365 92.0185 91.5077C91.904 91.679 91.8501 91.8836 91.8654 92.0891C91.7815 92.5811 93.9398 92.5587 94.5492 92.5028C95.1587 92.4469 95.1699 92.0499 95.2929 91.9996C95.4159 91.9493 95.3935 92.24 95.3768 92.391C95.36 92.542 95.9359 92.5587 96.2881 92.5643C96.6404 92.5699 96.3329 90.6577 96.6795 88.8797C97.0153 88.8627 97.3469 88.7968 97.6636 88.684C97.6636 88.684 99.2571 84.77 100.202 67.7389C101.074 52.0832 99.5087 44.1994 99.2515 43.0252C99.5804 42.8407 99.8562 42.5745 100.052 42.2522C100.248 41.93 100.357 41.5626 100.37 41.1857C100.37 40.962 100.141 32.0383 100.09 31.3394C102.601 29.4863 104.878 27.3367 106.873 24.9373C107.891 23.7911 108.599 22.4033 108.93 20.906C109.439 17.9593 107.633 16.3938 105.201 14.7108ZM92.9837 8.44851C93.221 8.32219 93.4947 8.28158 93.7585 8.33353C94.0223 8.38547 94.2601 8.5268 94.4318 8.73367C94.8304 9.15384 95.2503 9.55321 95.6899 9.93021C95.1181 10.3764 94.7221 11.01 94.5716 11.7194C94.5715 11.176 94.3588 10.6542 93.9789 10.2657C93.3771 9.71908 92.6135 9.38344 91.8039 9.30957C92.1636 8.97916 92.5593 8.69032 92.9837 8.44851ZM93.0675 20.1903C93.0608 20.181 93.052 20.1735 93.0417 20.1683C93.0315 20.1632 93.0203 20.1605 93.0088 20.1605C92.9974 20.1605 92.9861 20.1632 92.9759 20.1683C92.9657 20.1735 92.9569 20.181 92.9501 20.1903L92.5419 20.6096C92.4469 20.0505 92.3127 18.8875 92.3239 18.8819C92.6035 18.7142 94.32 15.1861 94.5604 12.6085C95.8464 14.7656 97.457 16.7118 99.3354 18.3787C99.6038 18.6191 100.851 19.62 100.879 19.6367C100.772 19.6759 94.2809 21.5602 94.0292 21.6943C93.7105 21.1632 93.3751 20.6879 93.0675 20.1791V20.1903ZM94.0013 21.9963C93.6323 22.5163 92.1114 24.3782 91.7983 24.8479C91.3074 24.1565 90.8592 23.4357 90.4564 22.6896C91.3392 21.9533 92.1845 21.1733 92.9893 20.3524C93.3247 20.8892 93.6378 21.4539 94.0013 21.9851V21.9963ZM85.6646 12.0214C86.1623 11.9207 86.2238 13.2962 88.3988 13.6205C88.308 13.6243 88.2192 13.6484 88.1389 13.6909C88.0586 13.7335 87.9888 13.7935 87.9347 13.8665C87.9347 13.8665 88.6728 13.559 88.8517 14.1181C88.8517 14.1517 88.9411 14.1181 88.9467 14.0902C88.9546 13.9902 88.9277 13.8905 88.8707 13.808C88.8136 13.7256 88.7299 13.6652 88.6336 13.6373C88.9587 13.6693 89.2856 13.6805 89.6121 13.6708C90.9428 13.6428 90.3446 15.2308 90.7639 15.3091C90.9652 15.3482 90.9932 15.1469 91.1944 14.9289C91.3957 14.7108 91.7983 14.448 92.1226 14.6996C92.9781 15.3762 91.843 16.5951 91.843 16.5951C91.8945 17.9784 92.1027 19.3515 92.4637 20.6879C91.3957 21.7447 90.2831 22.6505 90.2831 22.7008C90.1041 22.7008 89.3046 22.8573 89.0138 22.9188C88.6957 22.2711 88.4175 21.6045 88.1807 20.9227C88.2226 20.619 88.2394 20.3123 88.231 20.0058C88.231 19.1838 87.5265 19.4914 87.068 19.3628C86.7855 19.2771 86.5282 19.1236 86.3188 18.9155C85.8826 18.4509 85.5945 17.867 85.4913 17.2381C85.3462 16.5139 85.2621 15.7789 85.2397 15.0407C85.2061 14.1572 85.0496 12.1444 85.6646 12.0214ZM86.5089 22.3653C86.0392 22.1752 80.0454 18.6918 79.6092 18.306C80.0118 17.9873 83.9257 15.4433 85.0775 14.8618C85.0775 16.6901 85.2956 19.2286 87.096 19.6088C87.5601 19.7038 87.89 19.5417 87.9571 19.8157C87.985 19.9331 87.9962 20.3133 88.013 20.6208C87.9984 20.613 87.982 20.6089 87.9655 20.6089C87.9489 20.6089 87.9326 20.613 87.9179 20.6208C87.6887 20.8836 86.3132 22.0242 86.3524 22.0746C86.4099 22.1685 86.4622 22.2656 86.5089 22.3653ZM87.9459 20.9898C88.0409 21.2862 88.7399 22.4883 88.9132 22.8406C88.9132 22.8406 87.8564 24.2104 87.6887 24.518C87.5321 24.121 86.6487 22.2311 86.5704 22.1025C87.0792 21.8062 87.3532 21.3701 87.9459 21.0122V20.9898ZM82.7515 89.3437C82.0191 90.0315 80.8561 89.5059 80.6716 89.3437C80.6716 89.1928 80.5542 88.2926 80.515 87.9962C81.2985 88.0801 82.0871 88.1081 82.8746 88.0801C82.841 88.2646 82.7515 89.1089 82.7515 89.3437ZM96.3496 90.1824C96.0412 90.4063 95.6684 90.524 95.2873 90.518C94.9062 90.5119 94.5373 90.3824 94.2361 90.1489C94.2361 90.0147 94.1019 89.1313 94.0628 88.8237C94.4262 88.8237 96.2434 88.8741 96.5677 88.8237C96.5286 89.1313 96.3776 90.0203 96.344 90.1824H96.3496ZM108.651 21.3085C108.235 22.6096 107.549 23.808 106.638 24.8255C104.663 27.1806 102.41 29.2871 99.9281 31.0989C99.8219 31.1772 100.247 41.2807 100.096 41.6833C99.8868 42.17 99.5259 42.576 99.067 42.8407C97.4847 43.8528 88.4435 44.5181 83.2827 43.042C82.3925 42.811 81.5752 42.3587 80.9065 41.7273C80.2379 41.0958 79.7397 40.3056 79.4583 39.43C79.1022 38.1962 78.9752 36.9075 79.0836 35.6279C79.2011 32.8323 79.6428 29.7458 80.0062 27.0396C80.0062 27.0396 79.9615 27.0005 79.9559 27.0396C79.7378 28.2809 79.5365 29.4551 79.3576 30.7076C78.5972 30.0701 77.8256 29.5054 77.1211 28.8121C74.7768 26.6127 73.0299 23.8537 72.0442 20.7941C71.362 18.4122 71.6192 17.8587 72.5306 16.6118C72.7585 16.2863 73.023 15.988 73.319 15.7228C74.7553 14.4933 76.3454 13.4558 78.0492 12.6364C80.0077 11.8285 82.0445 11.2252 84.127 10.836C84.2529 10.9625 84.3706 11.097 84.4793 11.2386C84.155 11.7082 83.73 12.519 84.0655 13.1899C84.2685 13.707 84.6333 14.1444 85.1055 14.4368V14.7108C84.0543 15.242 79.7881 17.8978 79.352 18.2389C79.3398 18.2504 79.3301 18.2643 79.3235 18.2797C79.3169 18.295 79.3134 18.3116 79.3134 18.3284C79.3134 18.3451 79.3169 18.3617 79.3235 18.3771C79.3301 18.3925 79.3398 18.4063 79.352 18.4178C81.0294 19.8716 86.0952 22.4044 86.6711 22.5666C86.8164 22.8294 87.465 24.244 87.6495 24.6913C87.6495 24.736 87.739 24.764 87.767 24.6913C87.9242 24.3546 88.1172 24.036 88.3429 23.7408C88.3708 24.0147 88.533 24.9317 89.2095 25.1218C89.8861 25.3119 90.8031 24.3111 90.8869 23.7799C90.8869 23.8246 91.4852 24.6913 91.7256 25.0883C91.7343 25.1041 91.7465 25.1177 91.7613 25.1281C91.7761 25.1384 91.7931 25.1452 91.811 25.1479C91.8288 25.1506 91.847 25.1491 91.8642 25.1436C91.8814 25.1382 91.8972 25.1288 91.9101 25.1162C92.2903 24.6298 93.7329 22.5219 94.1746 22.041C94.2305 21.9851 94.1746 21.946 94.0852 21.767C94.3144 21.767 101.673 19.5864 102.232 19.2789C102.293 19.2453 102.232 19.1503 102.181 19.1671C101.829 19.2603 101.482 19.3723 101.141 19.5026C99.0838 17.7804 97.6412 16.869 95.701 14.1517C94.991 13.1564 94.8735 12.8489 94.5828 12.396C94.6516 11.8092 94.8676 11.2494 95.2107 10.7684C95.5538 10.2875 96.0129 9.90108 96.5453 9.64505C96.9535 9.88548 100.23 11.6579 103.596 13.8218C105.083 14.7779 107.135 16.1366 108.069 17.4505C108.45 18.0082 108.702 18.6444 108.804 19.3121C108.907 19.9799 108.858 20.6621 108.662 21.3085H108.651Z" fill="black"/>
</svg>
