<svg width="112" height="112" viewBox="0 0 112 112" fill="none" xmlns="http://www.w3.org/2000/svg">
<path d="M109.303 82.5609C109.271 82.4188 109.153 82.3674 109.023 82.2813C109.023 82.2813 109.309 75.8188 109.309 75.7456C109.309 73.3229 105.842 71.2524 100.886 70.6016C101.127 70.5041 101.335 70.3404 101.487 70.1294C101.638 69.9184 101.727 69.6688 101.742 69.4095C101.792 69.3989 101.838 69.3747 101.875 69.3396C101.913 69.3045 101.94 69.2598 101.953 69.2105C103.716 62.819 105.064 57.0605 103.692 51.3115C102.313 45.3802 98.0091 38.995 93.2229 35.7827C88.3731 32.6629 82.5336 31.4648 76.8471 32.4229C76.8068 32.3273 76.7682 32.2306 76.7302 32.1311C77.2464 32.1828 77.7637 32.0439 78.1845 31.7406C78.6054 31.4373 78.9007 30.9905 79.0148 30.4844C79.1216 29.8856 78.8918 30.003 79.1669 29.9812C79.893 29.8435 80.5358 29.4255 80.9561 28.8176C81.3889 28.0958 81.2357 26.6784 80.4328 26.2456C80.6113 25.9634 80.7523 25.6591 80.8521 25.3404C81.2692 23.9722 80.312 23.587 79.4487 23.0849C78.2785 22.4407 78.572 20.2193 77.967 18.9422C76.8398 16.4071 74.038 13.9341 71.509 14.879C70.0488 14.2361 68.4303 14.0426 66.8597 14.3232C65.2891 14.6038 63.8376 15.3459 62.6904 16.4547C61.4944 17.6569 60.5893 19.1169 60.0445 20.7229C59.4998 22.3289 59.3298 24.0382 59.5475 25.72C59.7655 26.7025 59.8536 27.7094 59.8098 28.7148C59.751 29.4802 59.0829 30.1333 58.9476 31.0128C58.872 31.3013 58.8769 31.605 58.9616 31.891C59.0464 32.1769 59.2078 32.4342 59.4283 32.635C59.6489 32.8357 59.9202 32.9723 60.2129 33.0298C60.5055 33.0873 60.8083 33.0637 61.0885 32.9614C61.1261 33.3491 61.2677 33.7194 61.4984 34.0333C61.7291 34.3471 62.0403 34.5928 62.3991 34.7444C62.7629 34.8772 63.1573 34.9022 63.535 34.8164C63.9126 34.7306 64.2575 34.5377 64.5283 34.2608C64.7201 34.5057 65.2445 34.9172 65.5196 34.8898C65.7826 34.9377 66.0539 34.8854 66.2802 34.7432C66.5066 34.601 66.6714 34.3792 66.7424 34.1216C67.2738 34.5053 67.8835 34.7667 68.5278 34.8869C69.1721 35.0072 69.835 34.9834 70.469 34.8171V34.8345C58.4125 38.073 53.548 49.3238 52.5735 50.3481C52.349 50.5003 52.0917 50.5971 51.8226 50.6305C48.971 51.1533 46.5757 53.1321 44.461 54.8799C42.0008 56.914 41.7587 56.8973 41.6765 57.0549C39.7308 56.351 38.3967 56.9297 37.6782 58.0435C35.9756 58.1637 35.5144 60.6429 35.1095 62.3247C34.8747 63.2999 34.5454 64.734 34.8255 65.6941C34.7824 65.75 34.7629 65.797 32.3329 69.9714C31.9862 69.8563 31.6345 69.7586 31.2778 69.6785C31.0658 69.5948 30.8393 69.5541 30.6114 69.5587C30.3836 69.5633 30.1589 69.6131 29.9504 69.7053C29.4982 69.9675 29.1561 70.3846 28.9876 70.8795C28.8081 71.2384 28.6214 71.6662 28.4106 72.2046C28.2525 70.2303 28.2206 68.2478 28.315 66.2694C28.4749 61.9574 28.24 57.5587 28.0555 53.2674C30.1787 51.1141 32.0814 48.754 33.7352 46.2223C33.7724 46.2382 33.8126 46.2458 33.8531 46.2447C33.8935 46.2435 33.9332 46.2336 33.9695 46.2156C35.1403 45.6141 36.2788 44.9515 37.3802 44.2307C38.2447 44.4249 39.1428 44.4121 40.0014 44.1932C40.2211 45.1996 41.2824 45.6889 42.1417 46.0859C42.1857 46.1061 42.2341 46.1145 42.2822 46.1105C42.3304 46.1064 42.3767 46.0898 42.4166 46.0625C42.4564 46.0352 42.4886 45.998 42.5098 45.9546C42.531 45.9111 42.5406 45.8629 42.5376 45.8147C42.5189 45.3605 42.3653 44.9221 42.0965 44.5555C41.8276 44.189 41.4556 43.9108 41.028 43.7565C41.1817 43.6682 41.3282 43.5743 41.4669 43.477C41.5148 43.5009 41.5685 43.5105 41.6218 43.5048C41.675 43.499 41.7254 43.4781 41.7671 43.4445C42.1512 43.1353 44.3984 44.6221 46.7725 43.9785C46.9218 43.9377 47.6224 43.7364 47.7124 43.8611C47.7562 43.9188 47.8208 43.9571 47.8924 43.9681C47.964 43.9791 48.0371 43.9619 48.0963 43.9201C48.1554 43.8783 48.1961 43.8151 48.2096 43.7439C48.223 43.6727 48.2084 43.599 48.1686 43.5385C47.4194 42.4202 45.1269 41.4233 42.9055 42.1887C43.4586 41.7427 43.8991 41.1729 44.1915 40.5253C44.468 39.8397 44.6741 39.1278 44.8066 38.4006C44.8162 38.345 44.8088 38.2877 44.7854 38.2364C44.7619 38.1851 44.7234 38.142 44.675 38.113C44.6266 38.0839 44.5705 38.0702 44.5141 38.0737C44.4578 38.0771 44.4038 38.0975 44.3593 38.1322C43.5369 38.7516 42.7644 39.4345 42.0489 40.1747C41.7222 40.5648 41.4758 41.0156 41.324 41.5013C41.1722 41.9869 41.1179 42.4978 41.1644 43.0045C40.8542 43.2253 40.5215 43.4127 40.1719 43.5636C39.4794 43.7906 38.7453 43.8616 38.0221 43.7716C39.0285 42.9928 40.0713 41.9673 40.3945 40.6405C40.683 40.2735 40.9446 39.8862 41.1772 39.4814C41.7011 38.4325 41.8292 36.5482 41.7397 35.3953C41.7359 35.3467 41.7194 35.3001 41.692 35.2598C41.6646 35.2196 41.6271 35.1873 41.5833 35.166C41.5396 35.1447 41.491 35.1352 41.4424 35.1384C41.3938 35.1417 41.347 35.1575 41.3064 35.1845C40.4665 35.7554 39.8223 36.5707 39.4613 37.52C39.4578 37.5293 39.4548 37.5388 39.4523 37.5485C39.1559 38.6347 39.2564 39.7911 39.7358 40.8099C39.7397 40.8182 39.7442 40.8262 39.7492 40.8339C39.0397 42.7999 36.0058 44.5192 34.1652 45.4887C37.5009 39.4982 35.3494 37.0598 37.6776 30.4872C38.7564 30.127 39.7647 29.5827 40.6578 28.8786C41.6251 28.8847 42.4235 29.218 43.4317 29.1503C44.4479 29.029 45.4142 28.6421 46.2335 28.0287C46.2682 28.0027 46.2964 27.9689 46.3158 27.9301C46.3352 27.8913 46.3453 27.8485 46.3453 27.8051C46.3453 27.2789 43.8264 26.8159 42.3313 27.2728C43.1115 26.3434 43.7294 25.2892 44.1591 24.1545C44.5742 24.2026 44.994 24.1214 45.3612 23.9219C45.6324 23.8201 45.9041 23.7016 46.1753 23.5825C46.9714 23.3187 47.7169 22.9217 48.38 22.4083C48.4212 22.374 48.4517 22.3286 48.4679 22.2775C48.484 22.2263 48.4851 22.1716 48.471 22.1199C48.457 22.0681 48.4283 22.0215 48.3884 21.9856C48.3486 21.9497 48.2993 21.926 48.2463 21.9174C47.1832 21.7405 46.0913 21.907 45.1292 22.3927C45.1986 22.1396 45.2208 21.876 45.1946 21.6149C45.1503 21.2734 45.1503 20.9276 45.1946 20.5861C45.2197 20.5591 45.2392 20.5274 45.252 20.4928C45.2648 20.4583 45.2707 20.4215 45.2694 20.3847C45.268 20.3478 45.2594 20.3116 45.244 20.2781C45.2286 20.2446 45.2068 20.2145 45.1798 20.1894C45.1528 20.1643 45.1211 20.1448 45.0865 20.132C45.052 20.1192 45.0152 20.1133 44.9784 20.1146C44.9415 20.116 44.9053 20.1246 44.8718 20.14C44.8383 20.1554 44.8082 20.1772 44.7831 20.2042C43.8795 20.9965 43.0386 22.538 43.7129 23.748C43.2299 25.1083 42.4645 26.3511 41.4669 27.3944C40.4693 28.4378 39.2621 29.2582 37.9248 29.8017C39.2611 26.2618 41.1331 22.8595 41.8946 19.1301C43.2863 19.0541 43.5921 17.6904 44.1434 17.0295C44.1801 16.984 44.2016 16.9283 44.2049 16.87C44.2082 16.8117 44.1933 16.7539 44.1621 16.7045C44.1309 16.6552 44.085 16.6169 44.0309 16.595C43.9769 16.573 43.9173 16.5685 43.8605 16.5822C43.2066 16.7082 42.6194 17.064 42.2049 17.5852C42.2049 16.7393 41.7151 16.623 41.1935 14.7096C41.1777 14.6517 41.1438 14.6003 41.0966 14.5632C41.0494 14.526 40.9915 14.505 40.9315 14.5033C40.8715 14.5016 40.8125 14.5193 40.7633 14.5538C40.7141 14.5882 40.6773 14.6375 40.6584 14.6945C40.445 15.3562 40.3724 16.0552 40.4453 16.7465C40.5231 17.4718 40.8662 18.1427 41.4087 18.6303C41.0354 19.9997 40.5565 21.3382 39.9762 22.6336C39.7722 21.8649 39.6903 21.0688 39.7336 20.2747C39.7378 20.2008 39.7126 20.1282 39.6635 20.0728C39.6143 20.0175 39.5452 19.9839 39.4713 19.9794C39.4346 19.9772 39.3979 19.9823 39.3632 19.9943C39.3284 20.0064 39.2964 20.0251 39.269 20.0495C39.2415 20.0739 39.2191 20.1035 39.2031 20.1366C39.187 20.1696 39.1777 20.2055 39.1755 20.2422C39.1187 21.3196 39.2722 22.3977 39.6273 23.4164C38.0959 26.7908 36.2127 30.1573 35.5731 33.9024C35.421 34.8529 35.3533 35.8331 35.2655 36.7869C34.1037 35.195 33.356 33.3391 33.09 31.3863C33.6439 31.1161 34.1056 30.6882 34.4168 30.1562C34.4604 30.0863 34.7618 29.0329 34.8965 28.8176C34.9441 28.7771 34.9766 28.7217 34.989 28.6605C35.0015 28.5992 34.993 28.5356 34.965 28.4797C34.937 28.4238 34.8911 28.379 34.8346 28.3522C34.7781 28.3255 34.7142 28.3185 34.6533 28.3323C34.3234 28.414 34.0135 28.5615 33.742 28.7659C33.4706 28.9704 33.2433 29.2276 33.0737 29.5221C32.8856 29.8846 32.7314 30.2636 32.613 30.6544C32.2307 29.8151 31.7459 29.0263 31.1699 28.306C31.1501 28.2505 31.1133 28.2027 31.0646 28.1694C31.016 28.1361 30.9582 28.119 30.8992 28.1205C30.8403 28.1221 30.7834 28.1422 30.7366 28.178C30.6899 28.2139 30.6556 28.2636 30.6387 28.32C30.4645 28.8722 30.4684 29.4652 30.65 30.015C30.8315 30.5648 31.1814 31.0436 31.6502 31.3835C31.106 31.1482 30.5374 30.9736 29.9549 30.8629C29.8992 30.8528 29.8417 30.8599 29.7901 30.8831C29.7385 30.9064 29.6952 30.9448 29.6658 30.9932C29.502 31.2633 29.8487 31.4405 30.1059 31.8878C30.4087 32.3514 30.8301 32.7255 31.3263 32.9713C31.8226 33.2171 32.3755 33.3256 32.9278 33.2857C33.3832 34.8557 34.1499 36.3179 35.1822 37.5854C34.6013 42.6288 31.8347 46.7171 27.9051 49.8069C27.6328 43.4328 27.4248 36.9155 28.0119 30.5124C31.5216 27.6653 32.8993 22.254 32.8607 17.7228C33.3862 17.3528 33.8331 16.8823 34.1755 16.3384C34.5178 15.7945 34.7489 15.188 34.8551 14.5542C34.8633 14.5024 34.8567 14.4493 34.8361 14.4011C34.8155 14.3528 34.7818 14.3114 34.7387 14.2814C34.6957 14.2514 34.6451 14.2341 34.5927 14.2316C34.5403 14.229 34.4883 14.2412 34.4425 14.2668C32.9653 15.0977 32.206 16.1678 32.2787 17.295C32.0894 16.7492 31.8101 16.2389 31.4523 15.7854C31.2533 15.5376 31.0749 15.2739 30.9188 14.997C30.9232 14.9293 30.9027 14.8623 30.8613 14.8085C30.8199 14.7548 30.7603 14.7179 30.6937 14.7048C30.6271 14.6918 30.558 14.7034 30.4993 14.7375C30.4407 14.7716 30.3964 14.8259 30.3748 14.8902C30.0885 15.7267 30.0885 16.6347 30.3748 17.4712C30.3799 17.4868 30.3865 17.502 30.3944 17.5165C30.8219 18.3019 31.4681 18.9463 32.2546 19.3717C32.182 20.5 32.0153 21.6203 31.7564 22.7209C30.6537 20.9523 29.8493 19.0144 29.3756 16.9847C29.3678 16.9484 29.3528 16.914 29.3315 16.8835C29.3102 16.8531 29.283 16.8272 29.2516 16.8074C29.2201 16.7875 29.1851 16.7742 29.1484 16.768C29.1118 16.7619 29.0742 16.7632 29.0381 16.7717C29.0019 16.7803 28.9678 16.7959 28.9378 16.8178C28.9077 16.8397 28.8823 16.8674 28.8631 16.8992C28.8439 16.931 28.8312 16.9663 28.8258 17.0031C28.8204 17.0399 28.8224 17.0773 28.8316 17.1133C28.8845 17.337 28.9405 17.5606 28.9993 17.7843C28.5463 17.4979 28.1597 17.118 27.8654 16.6701C27.5711 16.2222 27.3759 15.7166 27.2929 15.1871C27.6368 15.0836 27.9556 14.9101 28.2293 14.6775C28.5031 14.445 28.7258 14.1584 28.8836 13.8357C29.2148 13.1777 29.4888 12.4925 29.7027 11.7876C29.7189 11.7333 29.7183 11.6754 29.7009 11.6215C29.6834 11.5677 29.65 11.5203 29.6051 11.4859C29.5602 11.4514 29.5059 11.4313 29.4493 11.4284C29.3928 11.4255 29.3367 11.4398 29.2884 11.4695C28.4032 12.0263 27.6419 12.7592 27.0519 13.6227C26.8137 12.387 26.4083 12.3875 25.8917 11.0082C25.8711 10.9534 25.8339 10.9065 25.7853 10.874C25.7366 10.8415 25.679 10.825 25.6205 10.827C25.562 10.829 25.5057 10.8493 25.4593 10.885C25.413 10.9207 25.379 10.97 25.3622 11.0261C25.1592 11.7214 25.134 12.4566 25.2889 13.1642C25.5229 13.9272 26.0177 14.5837 26.6868 15.0188C26.7642 15.595 26.9417 16.1532 27.2112 16.6683C26.3358 16.4996 25.4291 16.671 24.6756 17.1474C24.6376 17.1718 24.606 17.205 24.5837 17.2442C24.5613 17.2834 24.5487 17.3275 24.5471 17.3726C24.5455 17.4177 24.5548 17.4625 24.5742 17.5033C24.5937 17.544 24.6227 17.5794 24.6588 17.6065C24.9831 17.8504 25.3763 17.9854 25.7821 17.9923C26.5044 18.0394 27.2267 17.8998 27.8794 17.5869C28.2624 17.9867 28.7178 18.3102 29.2213 18.5402C29.7642 20.2818 30.5533 21.9368 31.5646 23.455C30.9026 25.8352 29.9007 28.0539 28.0868 29.7089C28.2013 28.5929 28.3422 27.4808 28.5095 26.3726C28.5208 26.3018 28.5044 26.2294 28.4638 26.1703C28.4232 26.1113 28.3615 26.07 28.2914 26.0552C28.2213 26.0403 28.1481 26.053 28.0871 26.0905C28.026 26.128 27.9817 26.1876 27.9633 26.2568C26.9284 30.2042 26.284 34.2438 26.0393 38.3173C23.8537 37.3858 22.3004 34.5331 21.6932 32.8646C21.5948 32.5292 21.6127 32.6158 21.6305 32.5409C22.5165 28.8885 22.8341 25.1214 22.5721 21.3722C22.5669 21.2981 22.5324 21.2291 22.4762 21.1804C22.4201 21.1317 22.3469 21.1073 22.2727 21.1125C22.1986 21.1178 22.1295 21.1523 22.0808 21.2084C22.0321 21.2646 22.0077 21.3378 22.013 21.4119C22.2496 24.7584 22.013 28.1216 21.3102 31.4019C21.1673 30.7767 21.0749 30.141 21.034 29.5009L20.363 24.2926C20.3608 24.2184 20.3292 24.1482 20.2752 24.0974C20.2212 24.0465 20.1492 24.0192 20.075 24.0214C20.0009 24.0236 19.9307 24.0552 19.8798 24.1092C19.829 24.1632 19.8016 24.2352 19.8039 24.3094C19.7636 24.9171 19.7507 25.4835 19.7664 26.0197C19.0184 25.1773 18.4527 24.1893 18.1047 23.1178C17.7566 22.0463 17.6339 20.9144 17.744 19.7933C17.757 19.7814 17.7687 19.768 17.7787 19.7535C18.3512 19.7944 18.85 19.0043 18.9059 18.9635C19.4624 18.2804 19.922 17.5239 20.2719 16.7152C20.3046 16.6485 20.3095 16.5715 20.2855 16.5011C20.2615 16.4308 20.2105 16.3728 20.1438 16.3401C20.0771 16.3073 20.0001 16.3024 19.9297 16.3264C19.8593 16.3504 19.8014 16.4014 19.7686 16.4681C19.5178 16.6412 19.2496 16.7877 18.9685 16.9053C18.4368 17.1875 17.9953 17.6138 17.6948 18.1354C17.5139 16.88 17.0939 15.6709 16.4575 14.5738C16.4307 14.5281 16.3916 14.491 16.3446 14.4667C16.2977 14.4424 16.2448 14.4319 16.1921 14.4365C16.1394 14.441 16.0891 14.4605 16.047 14.4925C16.0049 14.5245 15.9727 14.5678 15.9542 14.6174C15.6538 15.4574 15.6009 16.366 15.8017 17.2352C16.0025 18.1045 16.4486 18.8978 17.087 19.521C17.1195 19.5532 17.1595 19.5771 17.2033 19.5903C17.0494 20.9242 17.2057 22.2757 17.6601 23.5392C18.1145 24.8028 18.8546 25.9443 19.8229 26.8747C20.3926 33.0838 20.363 35.4489 25.909 40.5818C25.7413 44.3112 25.7715 48.0574 25.8419 51.7644C24.1826 50.6061 22.5897 49.3554 21.0709 48.0182C19.4074 46.6469 17.9425 45.0511 16.718 43.2768C15.4365 41.3757 14.7107 39.1621 14.0571 36.9653C14.1013 36.929 14.1333 36.88 14.1488 36.825C14.737 34.6512 14.72 32.3579 14.0996 30.1931C14.4189 30.088 14.6699 29.6608 14.9383 29.1581C15.373 28.282 15.5869 27.3128 15.5612 26.3351C15.5612 26.2832 15.5467 26.2323 15.5194 26.1881C15.4921 26.144 15.4531 26.1083 15.4066 26.085C15.3602 26.0618 15.3082 26.052 15.2565 26.0567C15.2048 26.0613 15.1554 26.0803 15.1139 26.1114C14.6894 26.4221 14.3316 26.8148 14.0615 27.2661C13.7915 27.7175 13.6147 28.2185 13.5416 28.7394C13.4949 28.9302 13.465 29.1248 13.4521 29.3209C12.7437 28.6242 12.3517 28.6337 10.4652 27.6888C10.4163 27.6645 10.3614 27.6552 10.3072 27.6618C10.253 27.6685 10.202 27.6908 10.1604 27.7262C10.1188 27.7615 10.0884 27.8082 10.073 27.8606C10.0576 27.9129 10.0579 27.9687 10.0738 28.0209C10.339 28.9476 10.9474 29.7384 11.7753 30.2322C12.0347 30.4268 13.4644 30.9189 13.6931 31.1269C13.7114 31.1653 13.7382 31.1991 13.7714 31.2258C14.0991 32.801 14.1007 34.4267 13.7759 36.0025L13.5477 35.2052C13.5377 35.1698 13.5208 35.1369 13.4979 35.1081C13.4751 35.0793 13.4469 35.0553 13.4148 35.0374C13.3827 35.0196 13.3474 35.0082 13.3109 35.004C13.2745 34.9998 13.2375 35.0028 13.2022 35.0128C13.1669 35.0229 13.1339 35.0398 13.1051 35.0626C13.0763 35.0854 13.0523 35.1137 13.0345 35.1458C13.0166 35.1778 13.0052 35.2131 13.001 35.2496C12.9968 35.2861 12.9998 35.323 13.0098 35.3584C13.5292 37.3679 14.1928 39.3375 14.9953 41.2516C13.0284 40.5673 11.3857 39.1769 10.3858 37.35C10.3521 37.2884 10.2963 37.2417 10.2297 37.2193C10.1631 37.1969 10.0905 37.2005 10.0263 37.2292C9.56846 36.8834 9.03621 36.6493 8.47193 36.5454C7.64753 36.3454 6.79028 36.321 5.95584 36.4738C5.90511 36.4822 5.85768 36.5044 5.81875 36.538C5.77982 36.5716 5.75091 36.6152 5.73519 36.6642C5.71947 36.7131 5.71755 36.7655 5.72965 36.8154C5.74175 36.8654 5.76739 36.9111 5.80375 36.9474C6.35262 37.5232 7.0636 37.9185 7.84235 38.0808C7.98176 38.1311 8.12005 38.1743 8.25723 38.2105C7.52296 38.4354 6.84637 38.8173 6.27434 39.3297C5.70231 39.8421 5.2485 40.4727 4.94437 41.1778C4.92627 41.2191 4.9184 41.2641 4.92145 41.309C4.9245 41.354 4.93836 41.3975 4.96186 41.436C4.98536 41.4744 5.01781 41.5066 5.05643 41.5298C5.09505 41.553 5.1387 41.5665 5.18368 41.5692C6.35654 41.6514 7.53359 41.4862 8.63855 41.0844C9.59421 40.6883 10.3909 39.9855 10.903 39.0867C12.0552 40.459 13.5947 41.4517 15.3202 41.9349C16.658 44.446 18.4908 46.66 20.708 48.4432C22.3426 49.8818 24.0621 51.2211 25.857 52.4538C26.0967 59.2334 25.9957 66.0206 25.5545 72.79C25.4758 73.9516 25.2115 75.0931 24.7717 76.1711C24.7633 76.1913 24.7575 76.2126 24.7544 76.2343C22.3997 77.1424 20.2017 78.4138 18.2405 80.0023C17.8682 80.3057 17.4553 80.5556 17.0138 80.7448C16.4188 80.7934 15.8199 80.7468 15.2397 80.6067C11.3341 80.2628 8.34725 84.7062 5.09198 85.9682C3.41906 86.6576 2.57588 87.5232 2.51606 88.6151C2.51194 88.6891 2.53736 88.7617 2.58674 88.817C2.63613 88.8722 2.70542 88.9056 2.77941 88.9098C2.8534 88.9139 2.926 88.8885 2.98125 88.8391C3.0365 88.7897 3.06989 88.7204 3.07407 88.6465C3.1216 87.791 3.85126 87.0842 5.29942 86.4876C8.60389 85.2061 11.6131 80.8449 15.1541 81.158C15.7944 81.3112 16.4556 81.3581 17.1111 81.2967C17.6518 81.0952 18.1542 80.8031 18.5967 80.4328C20.5219 78.8751 22.68 77.6298 24.992 76.7425C29.0664 75.2413 29.6558 77.1423 31.7369 78.009C35.2594 79.475 38.7422 77.0674 41.0839 81.0344C42.1775 82.8013 42.3542 83.6489 44.3375 85.0686C45.3271 85.777 45.6235 86.0627 46.002 87.6478C46.2324 88.6151 46.4191 88.983 48.4583 89.5036C49.0254 89.6416 49.555 89.9031 50.0093 90.2696C50.4636 90.636 50.8313 91.0982 51.0862 91.6233C51.1018 91.6565 51.1238 91.6863 51.151 91.711C51.1782 91.7357 51.2099 91.7548 51.2445 91.7673C51.279 91.7797 51.3157 91.7852 51.3524 91.7835C51.3891 91.7818 51.4251 91.7728 51.4583 91.7572C51.4915 91.7415 51.5213 91.7195 51.546 91.6923C51.5708 91.6652 51.5899 91.6334 51.6023 91.5989C51.6147 91.5643 51.6202 91.5276 51.6185 91.491C51.6168 91.4543 51.6078 91.4183 51.5922 91.3851C51.3026 90.7854 50.8839 90.2573 50.3663 89.8383C49.8487 89.4194 49.2449 89.1201 48.598 88.9618C45.8885 88.2707 47.0951 88.1315 45.9701 85.8866C45.4669 85.0244 44.6344 84.6733 43.9729 84.0789C42.6763 82.9763 42.4409 82.1622 41.5625 80.7442C39.3517 76.9981 36.234 78.4015 33.1593 77.8334C34.0136 76.6698 34.9826 75.0282 35.71 74.2728C36.0341 73.9604 36.2497 73.5525 36.3251 73.1087C36.4548 72.2141 35.4445 71.5432 34.6773 71.0668C37.1884 66.7917 37.0453 67.0528 37.0581 66.9762C38.0721 66.6984 39.0044 66.1806 39.7761 65.4665C39.5908 67.1367 40.0732 68.8124 41.118 70.1286C42.2393 71.2784 43.5522 72.2244 44.9978 72.9242C50.0273 75.5115 55.3682 77.4425 60.8894 78.6698C57.7326 81.6031 54.5852 85.1977 53.935 90.3976C53.4575 94.0549 56.0714 95.2705 59.76 95.2705C67.5487 95.2705 77.8871 90.5564 84.3378 85.9962C84.3355 86.4457 84.2342 86.8893 84.0409 87.2952C83.8476 87.7011 83.5671 88.0594 83.2195 88.3445C82.5396 88.874 81.6841 89.3884 81.8468 90.2802C81.8908 90.5268 82.0052 90.7554 82.1763 90.9383C82.3473 91.1213 82.5677 91.2508 82.8108 91.3113C84.1032 91.4444 85.3965 91.0679 86.4155 90.2618L86.6503 95.6429C86.6503 98.6454 91.4365 100.997 97.5467 100.997C103.657 100.997 108.378 98.6448 108.443 95.6552C108.469 94.4301 108.466 94.5995 108.548 94.5615C108.594 94.5402 108.633 94.5066 108.662 94.4644C108.691 94.4223 108.707 94.3731 108.71 94.3222C109.362 81.7764 109.316 82.619 109.303 82.5609ZM41.879 45.3411C41.3247 45.1364 40.8655 44.7344 40.589 44.2122C40.8837 44.2719 41.1576 44.4074 41.3839 44.6054C41.6101 44.8034 41.7807 45.057 41.879 45.3411ZM46.2519 42.825C46.587 42.9245 46.9 43.0871 47.1739 43.3042C46.7719 43.3802 46.3117 43.5452 46.1088 43.5474C44.8894 43.6054 43.6717 43.4008 42.5382 42.9475C43.112 42.6616 43.7408 42.5031 44.3816 42.4828C45.0224 42.4624 45.66 42.5807 46.2508 42.8295L46.2519 42.825ZM42.4571 40.5516C42.9612 40.019 43.5047 39.5252 44.083 39.0744C43.5105 41.2455 42.9776 41.3019 41.7079 42.4974C41.7383 41.785 42.0011 41.1023 42.456 40.5533L42.4571 40.5516ZM39.988 37.7C40.2468 37.0294 40.6636 36.4312 41.203 35.9561C41.208 36.6321 41.156 37.3073 41.0475 37.9745C40.9393 38.775 40.5987 39.5262 40.0679 40.135C39.8009 39.3505 39.7727 38.5045 39.9868 37.7039L39.988 37.7ZM47.4054 22.4066C46.9394 22.667 46.4532 22.8897 45.9517 23.0726C45.6889 23.1844 45.4272 23.3024 45.1191 23.4226C44.9816 23.5015 44.8311 23.5551 44.6746 23.5808C44.7432 23.4655 44.8052 23.3464 44.8602 23.2241C45.6017 22.691 46.4922 22.405 47.4054 22.4066ZM44.6097 21.2252C44.6193 21.4393 44.6416 21.7592 44.6483 21.8341C44.6162 22.194 44.5308 22.5471 44.395 22.8819C44.2834 22.98 44.181 23.0882 44.0892 23.2051C44.0267 22.8569 44.0411 22.4993 44.1314 22.1573C44.2217 21.8152 44.3857 21.4971 44.612 21.2252H44.6097ZM42.7232 27.7402C43.3145 27.6259 43.92 27.6059 44.5175 27.6809C44.6114 27.6888 45.0682 27.7928 45.4373 27.8884C44.8063 28.2641 44.1037 28.5035 43.3746 28.5912C42.6701 28.5773 41.9682 28.4991 41.2779 28.3575C41.7249 28.0783 42.2125 27.87 42.7232 27.7402ZM34.1629 29.1514C34.107 29.3158 33.9247 29.8867 33.9247 29.8867C33.7324 30.1968 33.4831 30.4678 33.19 30.6851C33.3325 30.079 33.6753 29.5386 34.1629 29.1514ZM31.0782 29.1369C31.54 29.7353 31.9184 30.3937 32.2032 31.0939C31.8589 30.8966 31.5732 30.6115 31.3753 30.2677C31.1773 29.9239 31.0742 29.5336 31.0765 29.1369H31.0782ZM30.5761 31.5909C31.0349 31.7298 31.481 31.9075 31.9096 32.1221C32.1727 32.2641 32.3892 32.479 32.5331 32.7411C32.1408 32.7111 31.7606 32.5919 31.4214 32.3925C31.0823 32.1932 30.7932 31.919 30.5761 31.5909ZM30.897 17.2744C30.7361 16.7909 30.6843 16.2778 30.7455 15.772C30.9619 16.0739 31.256 16.4491 31.332 16.59C31.7158 17.1551 31.9275 17.8193 31.9415 18.5022C31.5146 18.1668 31.1595 17.749 30.897 17.2738V17.2744ZM25.753 12.0705C25.8794 12.3137 26.0229 12.5476 26.1824 12.7706C26.4059 13.2184 26.5357 13.7072 26.5638 14.207C26.2724 13.9379 26.0475 13.6048 25.9069 13.2339C25.7663 12.863 25.7138 12.4646 25.7536 12.07L25.753 12.0705ZM28.8892 12.4485C28.7433 12.8287 28.575 13.21 28.386 13.5886C28.1529 14.0663 27.7442 14.4355 27.2453 14.619C27.3605 13.9011 28.1579 13.0434 28.8898 12.4479L28.8892 12.4485ZM25.8319 17.4399C25.6994 17.4399 25.5676 17.421 25.4405 17.3839C25.9967 17.1631 26.6061 17.1125 27.1911 17.2386C26.7634 17.4234 26.2948 17.4928 25.8319 17.4399ZM34.1439 15.1217C33.8899 15.8658 33.4379 16.5267 32.8367 17.0334C32.9044 16.6395 33.0563 16.2649 33.2818 15.935C33.5074 15.6051 33.8015 15.3277 34.1439 15.1217ZM18.1047 18.5218C18.3407 18.1283 18.6479 17.7821 19.0105 17.5008C19.0552 17.4784 19.0664 17.4729 19.3303 17.3498C18.9115 18.0834 17.9593 19.3784 17.8083 19.1821C17.805 19.1368 17.8022 19.0915 17.7983 19.0462C17.8709 18.8558 17.9744 18.6786 18.1047 18.5218ZM16.2992 15.4583C16.8042 16.5213 17.1164 17.6655 17.2212 18.8377C16.8292 18.3764 16.5434 17.8346 16.3841 17.2506C16.2247 16.6666 16.1958 16.0547 16.2992 15.4583ZM14.0901 28.8406C14.1837 28.1441 14.493 27.4943 14.9746 26.9826C14.9292 27.5546 14.7972 28.1164 14.5832 28.6488C14.4131 28.9767 14.2234 29.2941 14.0152 29.5993C14.0035 29.3441 14.0288 29.0886 14.0901 28.8406ZM12.0845 29.7637C11.578 29.4684 11.1634 29.0383 10.8868 28.5213C12.5027 29.2661 12.9618 29.3181 13.4292 30.3536C12.9774 30.1528 12.2349 29.8733 12.0845 29.7637ZM6.6609 36.9513C7.22373 36.9064 7.79013 36.9525 8.3383 37.0878C8.86342 37.1685 9.35426 37.3985 9.75234 37.7503C9.15651 37.8349 8.54894 37.7636 7.98884 37.5435C7.50683 37.4499 7.0526 37.2474 6.6609 36.9513ZM8.44286 40.5611C7.54635 40.8883 6.59686 41.046 5.64272 41.0263C6.00782 40.348 6.53296 39.7691 7.17254 39.3398C7.81212 38.9104 8.54683 38.6437 9.31287 38.5628C10.1404 38.4509 10.4004 38.5868 10.4233 38.6746C10.5156 39.0486 9.38555 40.2016 8.44286 40.5611ZM82.5469 71.2809C82.81 71.2742 83.072 71.2439 83.3297 71.1903L86.1533 74.4087C85.8788 74.8786 85.7542 75.4211 85.796 75.9637L86.0258 81.2195L82.5469 71.2809ZM63.5649 48.9716C63.6532 47.7342 63.7852 46.4515 63.8953 44.7641C63.8892 44.5298 63.9407 44.2976 64.0454 44.088C64.1501 43.8784 64.3048 43.6977 64.4958 43.562C64.9633 43.4954 64.7631 44.8306 64.6966 45.699L63.9764 55.1774C63.7734 56.6194 63.301 56.7865 62.8805 56.8877C63.0756 56.3169 63.5062 49.7543 63.5621 48.9699L63.5649 48.9716ZM39.6424 62.4047C39.6646 62.4606 39.6681 62.5222 39.6525 62.5803C39.4635 63.1869 37.9583 64.3969 37.1621 64.6625C37.1062 64.6798 37.0151 64.691 36.8428 64.5859C36.3955 63.9513 36.8205 62.2934 37.3645 61.3949C37.4488 61.4697 37.5536 61.5173 37.6654 61.5314C37.7771 61.5456 37.8905 61.5257 37.9907 61.4743C38.0082 61.6377 38.0854 61.7888 38.2077 61.8985C38.3299 62.0083 38.4885 62.0689 38.6528 62.0687C38.7486 62.0616 38.8379 62.0177 38.9021 61.9462C38.9765 61.8903 38.9413 61.878 38.9765 62.0329C38.9923 62.1031 39.0228 62.1692 39.0658 62.2268C39.1089 62.2845 39.1636 62.3324 39.2264 62.3675C39.2893 62.4025 39.3588 62.424 39.4305 62.4304C39.5021 62.4368 39.5744 62.4281 39.6424 62.4047ZM60.498 56.153C61.2528 55.7067 61.9553 55.1775 62.5926 54.5752C62.5355 55.1686 62.4751 55.7482 62.4114 56.3141C62.4205 56.5158 62.3684 56.7155 62.2619 56.887C62.1554 57.0586 61.9996 57.1939 61.8148 57.2752L59.2383 58.7944C53.5016 57.9932 54.6272 59.6035 60.498 56.153ZM91.3196 61.58C91.4874 61.2395 91.3588 61.3832 91.4421 57.4553C91.5617 55.1312 91.4042 52.8011 90.973 50.5142C92.7689 52.4231 93.9219 52.9297 94.1969 55.4787C94.7175 59.9026 98.0991 63.9697 97.403 68.4942C97.3973 68.5351 97.4008 68.5767 97.4131 68.6161C95.7496 69.5868 95.3527 69.7098 94.7633 70.5418C93.7771 70.6489 92.7992 70.8223 91.8363 71.0606C92.3452 67.9954 92.0609 64.8509 91.0104 61.9266C91.1462 61.8452 91.2539 61.7242 91.3191 61.58H91.3196ZM101.619 77.1468C103.323 77.3988 104.987 77.8686 106.571 78.5446C102.373 80.9869 94.1913 81.2547 89.2799 78.941C92.6481 76.846 97.9224 76.6452 101.619 77.1468H101.619ZM99.4858 70.4573C99.2039 70.5255 98.9397 70.653 98.7109 70.8312C98.4821 71.0095 98.294 71.2345 98.159 71.4912C97.9291 71.9782 98.1209 72.6005 98.1064 73.0646C98.0991 73.3128 98.0248 73.4095 98.0002 73.4151C97.9756 73.4207 97.914 73.3855 97.8632 73.2826C97.5631 72.6788 97.413 72.0116 97.4254 71.3374C97.4254 71.2633 97.3959 71.1921 97.3435 71.1397C97.2911 71.0873 97.2199 71.0578 97.1458 71.0578C97.0717 71.0578 97.0005 71.0873 96.9481 71.1397C96.8957 71.1921 96.8662 71.2633 96.8662 71.3374C96.8662 71.3374 96.8718 72.9533 96.8752 73.0209C96.9104 73.8479 96.2009 73.8171 96.2171 72.87C96.2277 72.2549 96.2518 71.6572 96.2892 71.0886C96.2954 71.0144 96.272 70.9409 96.2239 70.884C96.1759 70.8272 96.1073 70.7918 96.0331 70.7855C95.959 70.7793 95.8854 70.8028 95.8286 70.8508C95.7717 70.8988 95.7363 70.9675 95.7301 71.0416L95.5305 72.9751C95.5047 72.9342 95.4842 72.8903 95.4695 72.8443C95.19 72.0788 94.9836 71.3955 95.2341 70.8314C95.5366 70.4056 95.9437 70.0649 96.4161 69.8423L98.3871 68.6921C99.3379 68.8177 100.279 69.0096 101.203 69.2664C101.121 70.1822 100.503 70.1151 99.4852 70.4573H99.4858ZM76.6827 24.5241C76.8252 24.524 76.9659 24.5556 77.0947 24.6167C77.2234 24.6777 77.337 24.7667 77.4271 24.877C77.5173 24.9874 77.5817 25.1165 77.6158 25.2548C77.6499 25.3932 77.6528 25.5374 77.6243 25.677C77.3871 26.6596 76.8808 27.5566 76.1621 28.2675C76.558 26.9848 75.3072 24.5241 76.6827 24.5241ZM70.837 36.9502C70.9035 37.2169 71.3038 37.1504 71.3038 36.8166L70.9035 34.4123C70.837 34.2787 70.7699 34.2116 70.6362 34.2787C68.0799 35.1056 64.705 33.1151 63.8892 28.0203C63.9719 27.6229 64.1184 27.2415 64.3231 26.8909C65.0063 25.8934 66.2661 25.2336 66.9717 24.1131C67.1651 24.6023 67.8881 24.7606 68.6038 23.7463C69.0209 24.8556 70.8403 24.9445 71.3804 22.245C71.9391 22.8386 72.3949 23.5211 72.7291 24.2646C73.0211 24.8094 73.2341 25.3931 73.3614 25.9979C73.3614 26.9451 73.3402 28.0841 74.2823 28.1786C73.9401 29.2051 73.2278 30.788 73.8233 31.6485C73.934 31.7989 74.08 31.9197 74.2485 32.0002C74.4169 32.0808 74.6027 32.1186 74.7892 32.1103C74.9758 32.102 75.1574 32.0479 75.318 31.9527C75.4787 31.8575 75.6134 31.7243 75.7104 31.5647C75.8074 31.6822 75.9203 31.7857 76.0458 31.8722C76.2846 32.6022 76.6078 33.302 77.0087 33.9572C77.0279 33.9885 77.0532 34.0156 77.083 34.0372C77.1127 34.0587 77.1465 34.0741 77.1822 34.0826C77.218 34.0911 77.255 34.0925 77.2913 34.0866C77.3276 34.0808 77.3623 34.0679 77.3936 34.0486C77.4249 34.0293 77.4521 34.0041 77.4736 33.9743C77.4951 33.9445 77.5106 33.9108 77.5191 33.8751C77.5275 33.8393 77.5289 33.8022 77.5231 33.766C77.5172 33.7297 77.5043 33.6949 77.485 33.6636C77.3419 33.431 77.2105 33.1945 77.0886 32.9474C77.4878 32.8866 77.8867 32.8357 78.2852 32.7947C78.0671 36.0936 76.6133 38.981 74.3774 40.2413C73.9051 40.4871 73.3886 40.6367 72.858 40.6812C72.3274 40.7258 71.7932 40.6644 71.2865 40.5007C70.9508 40.3669 70.6474 40.1631 70.3967 39.9028C70.146 39.6424 69.9538 39.3316 69.8328 38.991C69.4467 37.9179 69.3924 36.7535 69.6768 35.6491C69.972 35.5563 70.2702 35.4693 70.5714 35.388L70.837 36.9502ZM38.9882 57.5598C39.5686 57.2769 40.2321 57.2153 40.8546 57.3865C41.9472 57.6867 42.9463 58.1396 43.3478 58.9918C43.5496 59.4195 43.6274 60.2615 43.236 60.3896C42.6612 60.5814 42.0842 60.7961 41.4412 60.9907C41.3366 60.9823 41.2863 60.9526 41.279 60.9347C41.2555 60.8732 41.3137 60.6462 41.6436 60.3387C41.9294 60.1507 42.2377 59.9992 42.5611 59.8875C42.6306 59.8615 42.6869 59.8089 42.7176 59.7414C42.7483 59.6739 42.7509 59.5969 42.7249 59.5274C42.6989 59.4579 42.6463 59.4016 42.5788 59.3709C42.5113 59.3402 42.4343 59.3376 42.3648 59.3636C41.5843 59.5916 40.8988 60.0666 40.4112 60.7172C40.1908 61.1536 39.8837 61.5403 39.5088 61.854C39.407 61.183 40.0769 60.0217 40.5404 59.4251C40.5816 59.3721 40.6023 59.306 40.5989 59.239C40.5954 59.172 40.5679 59.1084 40.5214 59.06C40.4749 59.0115 40.4126 58.9814 40.3457 58.9752C40.2789 58.9689 40.212 58.9869 40.1574 59.0259C39.6588 59.3682 39.2757 59.8536 39.0587 60.4181C38.9295 60.7868 38.7703 61.1444 38.5829 61.4872C38.527 61.4363 38.527 61.2786 38.527 61.2076C38.6021 60.2918 38.8426 59.3973 39.2371 58.5674C39.2647 58.5077 39.2704 58.4403 39.2533 58.3768C39.2361 58.3134 39.1972 58.258 39.1432 58.2204C39.0893 58.1829 39.0239 58.1655 38.9584 58.1714C38.8929 58.1773 38.8316 58.206 38.7853 58.2526C38.2073 58.8702 37.8701 59.6747 37.8348 60.5199C37.8348 61.0455 37.667 61.0874 37.6547 60.7385C37.4881 59.7712 37.8638 58.1536 38.9882 57.5598ZM29.5065 71.0808C29.633 70.7047 29.8911 70.387 30.2334 70.1861C29.7223 72.1884 29.3477 73.92 29.0687 75.5622C28.8245 74.8739 28.6483 74.1634 28.5425 73.4409C28.8199 72.6369 29.1417 71.849 29.5065 71.0808ZM42.7898 17.7837C42.9131 17.6331 43.0635 17.5068 43.2332 17.4113C42.9139 17.9705 42.6466 18.3736 42.1641 18.5201C42.3444 18.252 42.5543 18.005 42.7898 17.7837ZM40.9894 15.8827C41.4367 17.0423 41.6363 17.1066 41.6503 17.5316C41.6201 17.6814 41.5893 17.8341 41.5647 17.9878C41.3245 17.698 41.149 17.3602 41.0498 16.9971C40.9506 16.6339 40.93 16.2538 40.9894 15.8821V15.8827ZM35.3092 73.8854C34.4979 74.7274 33.4159 76.5809 32.5655 77.697C31.8265 77.4801 31.1351 77.1257 30.5275 76.6525C32.024 75.0755 33.8 73.7895 35.7654 72.8599C35.7668 73.0535 35.7268 73.2451 35.6482 73.422C35.5695 73.5988 35.4539 73.7568 35.3092 73.8854ZM35.4881 72.3729C33.4416 73.3432 31.5984 74.6938 30.0567 76.3528C29.8928 76.2527 29.7251 76.1577 29.5534 76.0732C29.8442 74.2712 30.2512 72.374 30.8283 70.1336C30.9253 70.1485 31.0203 70.174 31.1117 70.2096C32.7283 70.554 34.2328 71.2977 35.4881 72.3729ZM32.8674 70.1621L35.1146 66.3041C35.2589 66.5157 35.4499 66.6913 35.6729 66.8174C35.8959 66.9434 36.1448 67.0165 36.4006 67.031L34.1954 70.7861C33.767 70.5491 33.3233 70.3406 32.8674 70.1621ZM61.6672 94.6297C57.6034 94.9406 53.9635 94.4883 54.4879 90.4692C55.0146 86.2522 57.1891 83.0814 60.3879 79.9285C63.4377 77.0249 66.6708 74.32 70.067 71.8306C70.1017 71.8052 70.13 71.7722 70.1499 71.7341C70.1697 71.696 70.1805 71.6539 70.1814 71.6109C70.1824 71.568 70.1734 71.5254 70.1552 71.4865C70.137 71.4476 70.1101 71.4134 70.0765 71.3866C69.4031 70.8419 68.6657 70.3813 67.8808 70.015C67.8137 69.9863 67.7379 69.985 67.6698 70.0114C67.6017 70.0378 67.5466 70.0898 67.5163 70.1563C67.4861 70.2228 67.4831 70.2985 67.5079 70.3672C67.5328 70.4359 67.5835 70.4921 67.6493 70.5239C68.2822 70.8178 68.882 71.1782 69.4386 71.5991C68.1498 72.5496 66.8738 73.542 65.5945 74.5882C65.5707 74.5524 65.5389 74.5225 65.5017 74.501C65.4645 74.4795 65.4228 74.4668 65.3798 74.4641C57.8464 73.9821 50.5282 71.7547 44.0037 67.958C43.9719 67.937 43.9361 67.9227 43.8986 67.916C43.8611 67.9093 43.8226 67.9104 43.7855 67.9191C43.7484 67.9279 43.7135 67.9441 43.6829 67.9668C43.6523 67.9895 43.6267 68.0182 43.6076 68.0512C43.5885 68.0842 43.5764 68.1208 43.5719 68.1586C43.5674 68.1964 43.5708 68.2348 43.5817 68.2713C43.5926 68.3078 43.6109 68.3417 43.6353 68.3709C43.6598 68.4001 43.69 68.424 43.7241 68.4411C50.249 72.2376 57.5592 74.4834 65.0902 75.0053C63.7651 76.1034 62.4265 77.2709 61.3999 78.2047C55.7873 76.9945 50.3587 75.0496 45.2544 72.4204C43.8744 71.7546 42.62 70.8549 41.5468 69.7612C41.035 69.1134 40.6678 68.3635 40.4701 67.562C40.2724 66.7604 40.2487 65.9258 40.4006 65.1143C40.4121 65.0546 40.4039 64.9927 40.3771 64.9381C41.5335 63.9465 42.4746 62.7287 43.1426 61.3597C44.1035 60.8303 45.1119 60.3922 46.1546 60.0513C48.6483 60.0216 51.1298 59.6986 53.548 59.0891C56.093 58.9701 58.6429 59.1728 61.1371 59.6924C62.5545 60.1928 63.8724 61.0941 65.244 61.7091C72.4914 65.0544 84.1594 66.9426 90.5413 62.2755C91.5396 65.1479 91.7811 68.2289 91.2425 71.2217C89.0289 71.8568 87.3504 72.8102 86.4697 73.9295L83.9095 71.0097C85.4829 70.3388 84.7319 68.8554 82.3886 68.8554C79.4722 68.8554 79.2128 71.0159 81.9458 71.2642L85.0372 80.1046C77.844 86.6979 69.6863 90.5749 60.7882 91.6266C60.7155 91.6364 60.6496 91.6743 60.6046 91.7323C60.5596 91.7902 60.5392 91.8636 60.5478 91.9364C60.5564 92.0093 60.5933 92.0758 60.6505 92.1217C60.7077 92.1677 60.7807 92.1892 60.8537 92.1818C69.7998 91.1245 78 87.2548 85.238 80.6783C86.0605 83.03 85.9973 82.9103 86.0968 82.9824L86.1387 83.9397C79.3307 89.4315 68.8291 94.0219 61.6672 94.6297ZM83.9447 90.76C83.2765 90.8718 82.5072 90.8522 82.3965 90.1846C82.2964 89.6344 82.9897 89.2302 83.5628 88.7868C84.0267 88.4055 84.3897 87.916 84.62 87.3614C84.8503 86.8069 84.9408 86.2042 84.8835 85.6064C85.3241 85.2855 85.7527 84.9607 86.1695 84.6319L86.3853 89.578C85.6823 90.1681 84.8436 90.5742 83.9447 90.76ZM107.883 95.6429C107.883 98.287 103.246 100.438 97.5456 100.438C91.8452 100.438 87.2083 98.287 87.2083 95.6294L86.4183 77.5169C89.9833 82.2863 105.106 82.2891 108.672 77.5169L108.48 81.91C107.394 81.1714 107.442 81.1725 107.287 81.2161L105.285 81.7501C105.234 81.7634 105.189 81.7903 105.153 81.8278C105.118 81.8654 105.093 81.9121 105.083 81.9628C105.072 82.0134 105.076 82.0661 105.093 82.1148C105.11 82.1636 105.141 82.2065 105.182 82.2388L106.747 83.4901L106.428 94.6029L105.02 95.3985C104.966 95.429 104.924 95.4763 104.9 95.5331C104.876 95.59 104.872 95.6532 104.888 95.7129C104.903 95.7726 104.938 95.8254 104.987 95.8631C105.036 95.9008 105.096 95.9213 105.158 95.9213C105.721 95.7751 106.273 95.5883 106.809 95.3622L107.917 94.8506L107.883 95.6429Z" fill="black"/>
<path d="M69.1997 30.8284C69.429 30.4845 68.8363 30.0663 68.0775 30.5745C68.0061 30.6219 67.9286 30.6595 67.8472 30.6863C67.8612 30.3978 67.9299 29.1812 67.9775 28.3536C67.9796 28.317 67.9744 28.2802 67.9624 28.2455C67.9503 28.2108 67.9314 28.1789 67.907 28.1514C67.8825 28.124 67.8529 28.1017 67.8198 28.0857C67.7867 28.0698 67.7508 28.0605 67.7141 28.0584C67.6407 28.0566 67.5694 28.0828 67.5146 28.1317C67.4599 28.1807 67.4258 28.2486 67.4195 28.3218C67.3786 29.0268 67.2864 30.6735 67.2853 30.73C67.2752 31.3165 67.841 31.4048 68.3873 31.0408C68.5062 30.9431 68.6583 30.8952 68.8117 30.9072C68.8423 30.9276 68.8767 30.9417 68.9128 30.9487C68.9489 30.9558 68.986 30.9556 69.0221 30.9483C69.0581 30.941 69.0924 30.9266 69.1229 30.906C69.1533 30.8855 69.1795 30.8591 69.1997 30.8284Z" fill="black"/>
<path d="M71.1434 30.1294C71.107 30.1242 71.07 30.1262 71.0343 30.1354C70.9987 30.1445 70.9653 30.1606 70.9359 30.1826C70.9065 30.2047 70.8817 30.2323 70.863 30.264C70.8443 30.2956 70.8321 30.3307 70.8269 30.3671C70.772 30.788 70.5984 31.1846 70.3264 31.5106C70.0544 31.8365 69.6953 32.0783 69.291 32.2077C69.2217 32.2298 69.1637 32.278 69.1293 32.3421C69.095 32.4062 69.0869 32.4811 69.1069 32.5511C69.127 32.621 69.1734 32.6804 69.2365 32.7166C69.2996 32.7528 69.3743 32.763 69.4448 32.7451C69.9524 32.5851 70.404 32.2839 70.7467 31.8768C71.0895 31.4697 71.3093 30.9734 71.3805 30.4459C71.3857 30.4096 71.3837 30.3725 71.3746 30.337C71.3655 30.3014 71.3495 30.268 71.3275 30.2386C71.3055 30.2092 71.2779 30.1844 71.2463 30.1657C71.2147 30.147 71.1797 30.1347 71.1434 30.1294Z" fill="black"/>
<path d="M68.9672 26.4123C69.5178 26.1799 70.1287 26.1309 70.7094 26.2725C70.7819 26.2886 70.8577 26.2753 70.9203 26.2354C70.9829 26.1956 71.0271 26.1325 71.0432 26.0601C71.0593 25.9876 71.046 25.9118 71.0061 25.8492C70.9663 25.7866 70.9032 25.7424 70.8307 25.7263C70.1729 25.5573 69.4777 25.6104 68.8531 25.8772C68.7945 25.9032 68.7466 25.9486 68.7175 26.0058C68.6883 26.0629 68.6797 26.1283 68.6931 26.191C68.7065 26.2538 68.741 26.31 68.7909 26.3503C68.8408 26.3906 68.903 26.4125 68.9672 26.4123Z" fill="black"/>
<path d="M66.1279 27.2114C66.1648 27.2168 66.2024 27.2149 66.2385 27.2057C66.2746 27.1964 66.3085 27.1801 66.3382 27.1575C66.3679 27.135 66.3927 27.1068 66.4114 27.0745C66.43 27.0422 66.4419 27.0065 66.4466 26.9695C66.4512 26.9325 66.4484 26.895 66.4383 26.8591C66.4282 26.8232 66.411 26.7898 66.3878 26.7606C66.3646 26.7315 66.3357 26.7073 66.303 26.6894C66.2703 26.6716 66.2343 26.6604 66.1973 26.6567C65.8726 26.6299 65.5472 26.6982 65.2608 26.8533C64.9743 27.0084 64.7392 27.2436 64.5842 27.5301C64.5658 27.5619 64.5539 27.5971 64.5491 27.6336C64.5444 27.67 64.5468 27.7071 64.5564 27.7426C64.5659 27.7781 64.5824 27.8114 64.6048 27.8405C64.6272 27.8697 64.6552 27.8941 64.687 27.9125C64.7189 27.9309 64.7541 27.9428 64.7905 27.9475C64.827 27.9523 64.8641 27.9498 64.8996 27.9403C64.9351 27.9307 64.9684 27.9143 64.9975 27.8918C65.0267 27.8694 65.0511 27.8415 65.0695 27.8096C65.1698 27.6188 65.323 27.4608 65.5107 27.3547C65.6984 27.2486 65.9127 27.1988 66.1279 27.2114Z" fill="black"/>
<path d="M65.9523 27.7856C65.4743 27.9097 65.6979 28.9038 65.9948 29.118C66.2917 29.3321 66.5378 28.9653 66.5461 28.6511C66.5545 28.3369 66.3767 27.6771 65.9523 27.7856Z" fill="black"/>
<path d="M69.9473 26.7875C69.4692 26.9117 69.6929 27.9058 69.9898 28.12C70.2867 28.3341 70.5327 27.9673 70.5411 27.6531C70.5495 27.3389 70.3689 26.6774 69.9473 26.7875Z" fill="black"/>
</svg>
