<svg width="401" height="239" viewBox="0 0 401 239" fill="none" xmlns="http://www.w3.org/2000/svg">
<path fill-rule="evenodd" clip-rule="evenodd" d="M346.565 144.371C346.886 145.033 348.109 145.233 348.911 145.373C355.447 146.536 383.776 147.138 386.503 144.792C388.888 142.787 387.565 110.027 385.24 108.704C382.232 106.92 349.432 106.579 347.147 108.403C345.483 109.787 344.44 139.74 346.565 144.371ZM347.648 108.824C349.472 107.301 381.51 108.443 384.397 109.847C385.941 113.977 386.944 139.92 385.44 143.609C382.994 145.293 353.021 145.233 347.788 143.609C345.743 138.697 346.505 109.787 347.648 108.824ZM266.831 105.316C266.036 106.676 264.962 107.853 263.68 108.768C262.398 109.684 260.937 110.318 259.393 110.629C259.345 110.617 259.296 110.615 259.248 110.625C259.2 110.635 259.155 110.656 259.116 110.686C259.078 110.716 259.047 110.755 259.025 110.798C259.004 110.842 258.992 110.891 258.992 110.94C258.992 110.988 259.004 111.037 259.025 111.081C259.047 111.125 259.078 111.163 259.116 111.193C259.155 111.223 259.2 111.244 259.248 111.254C259.296 111.264 259.345 111.262 259.393 111.25C262.921 112.173 267.512 108.965 267.512 105.436C267.528 105.346 267.508 105.253 267.455 105.177C267.403 105.102 267.322 105.051 267.232 105.035C267.141 105.019 267.048 105.04 266.973 105.092C266.898 105.145 266.847 105.225 266.831 105.316ZM250.451 87.3721V89.3769C250.451 89.6428 250.557 89.8978 250.744 90.0858C250.932 90.2738 251.187 90.3794 251.453 90.3794C251.718 90.3743 251.97 90.267 252.156 90.0801C252.343 89.8932 252.451 89.6412 252.456 89.3769V87.3721C252.456 87.1062 252.35 86.8512 252.162 86.6632C251.974 86.4752 251.719 86.3696 251.453 86.3696C251.187 86.3696 250.932 86.4752 250.744 86.6632C250.557 86.8512 250.451 87.1062 250.451 87.3721ZM270.44 89.2767C270.44 89.5426 270.545 89.7975 270.733 89.9855C270.921 90.1735 271.176 90.2791 271.442 90.2791C271.708 90.2791 271.963 90.1735 272.151 89.9855C272.339 89.7975 272.445 89.5426 272.445 89.2767V86.7906C272.445 86.5248 272.339 86.2698 272.151 86.0818C271.963 85.8938 271.708 85.7882 271.442 85.7882C271.176 85.7882 270.921 85.8938 270.733 86.0818C270.545 86.2698 270.44 86.5248 270.44 86.7906C270.359 87.6527 270.44 88.6552 270.44 89.2767Z" fill="black"/>
<path fill-rule="evenodd" clip-rule="evenodd" d="M386.683 234.31C386.552 234.087 386.366 233.9 386.142 233.769C384.418 232.927 375.035 233.348 373.09 233.428C373.431 180.84 345.723 148.04 305.505 138.637C298.127 136.913 298.107 136.792 297.907 136.913L296.543 133.163C300.393 133.043 303.541 130.076 307.069 130.677C309.736 131.118 311.079 133.484 313.705 134.487C318.156 136.171 326.076 133.584 328.501 129.354C329.744 127.149 328.642 124.863 329.424 123.34C330.827 122.117 334.817 120.152 335.96 118.728C338.305 115.801 338.406 109.245 337.343 105.696C335.425 101.681 332.812 98.036 329.624 94.9303C326.157 91.5892 323.083 87.8626 320.462 83.8232C317.234 77.3875 317.114 68.4858 314.447 61.7694C311.508 55.7051 306.958 50.5657 301.295 46.9132C295.764 43.0062 289.095 41.0394 282.329 41.3195C276.013 41.7205 273.547 44.4071 270.6 45.3293C267.653 46.2516 267.032 45.3293 262.24 47.4345C260.337 48.5937 258.643 50.0644 257.228 51.7851C256.626 52.4266 256.666 52.4667 255.644 52.5068C254.543 52.424 253.437 52.424 252.336 52.5068C250.458 52.9234 248.663 53.6483 247.023 54.652C235.856 61.3484 238.863 74.8212 234.653 84.7254C231.786 91.4618 223.806 97.9376 223.124 104.975C222.883 108.21 223.579 111.447 225.129 114.297C230.001 122.858 236.998 116.142 240.627 121.375C241.77 123.019 242.632 124.623 244.757 124.943C247.464 125.304 251.153 123.159 253.358 121.575C253.822 122.115 254.346 122.6 254.922 123.019C256.876 124.336 258.975 125.426 261.177 126.267L256.085 133.384C246.542 132.301 231.886 135.389 222.443 138.296C222.102 135.89 219.135 116.022 216.889 115.059C213.782 113.696 181.162 117.485 179.177 119.63C177.714 121.194 180.34 150.967 183.187 155.418C183.608 156.099 185.052 156.119 185.854 156.139C181.162 159.347 176.631 162.595 175.007 163.778C173.744 159.407 167.108 136.291 164.662 132.502C163.96 131.399 163.319 131.419 160.091 132.502C158.251 123.322 155.922 114.247 153.114 105.316C154.167 103.585 155.008 101.734 155.62 99.8021C156.367 96.7429 156.476 93.5626 155.941 90.4594C158.387 91.2814 173.002 95.2911 175.368 94.1283C176.004 93.6749 176.475 93.0277 176.711 92.2838C179.298 86.63 183.728 67.3229 184.069 61.208C184.21 60.425 184.075 59.6176 183.688 58.9225C181.343 56.4765 149.786 47.3944 147.119 48.5973C145.495 49.3391 141.105 63.7542 140.643 65.4584C136.814 78.3097 138.759 75.4828 136.634 76.2247C134.188 77.0868 132.083 82.2393 131.22 84.6251C130.358 87.0109 129.456 90.2188 130.479 92.1034C130.063 92.8698 129.896 93.7463 130 94.6118C130.105 95.4772 130.475 96.289 131.06 96.9351C130.422 97.6458 130.007 98.5276 129.864 99.4717C129.722 100.416 129.859 101.381 130.258 102.248C130.839 104.073 134.468 105.275 136.273 105.797C134.848 109.636 133.663 113.56 132.724 117.545C131.125 123.73 129.847 129.994 128.895 136.311C128.302 139.381 128.106 142.514 128.313 145.634L125.025 147.117C124.899 147.175 124.792 147.269 124.717 147.386C124.642 147.504 124.603 147.64 124.604 147.779C124.604 147.779 125.226 172.078 133.225 192.268C142.889 216.707 158.788 224.887 182.987 215.745C183.205 217.663 183.677 219.544 184.39 221.338C184.751 221.98 185.974 222.1 186.796 222.18C193.913 222.414 201.039 222.193 208.128 221.519L214.143 259.612C212.519 264.303 194.094 317.754 194.354 322.726C194.354 323.247 194.555 323.648 195.417 324.049C200.73 326.515 251.073 333.091 252.977 327.598C253.458 326.254 254.621 317.693 254.842 316.069L283.171 312.942L310.177 314.726C310.468 317.43 310.95 320.11 311.62 322.746C311.861 323.347 312.142 323.668 312.843 323.608C315.51 323.347 329.724 320.781 333.654 320.039C348.731 317.192 348.39 316.952 347.949 315.468C346.886 311.959 337.022 284.593 333.173 271.822C338.804 272.422 344.483 272.422 350.114 271.822C350.175 272.039 350.29 272.237 350.447 272.398C350.605 272.559 350.801 272.678 351.016 272.744C354.685 274.087 387.465 272.223 390.152 269.536C392.578 267.391 388.508 237.357 386.683 234.31ZM147.159 49.4594C147.38 49.1186 147.3 48.9782 149.064 49.2388C156.422 50.2814 180.481 58.0403 182.566 59.8648C182.967 64.456 177.012 89.6574 174.666 92.7048C172.962 93.2862 161.655 90.3992 159.91 89.9381C146.638 86.4696 147.159 85.9283 144.132 85.2266C142.568 84.6853 142.408 84.6652 142.448 84.4447C142.453 84.3951 142.476 84.3491 142.513 84.3157C142.55 84.2823 142.598 84.264 142.648 84.2642C144.453 84.2642 149.284 84.1239 150.467 82.7205C150.728 82.4351 150.923 82.0956 151.038 81.7261C151.153 81.3567 151.184 80.9665 151.131 80.5834C151.077 80.2004 150.939 79.8339 150.728 79.5101C150.516 79.1864 150.235 78.9134 149.906 78.7107C147.329 77.6784 144.636 76.9647 141.886 76.5855C141.064 76.4251 140.062 76.1445 139.06 76.0242C140.443 69.7689 145.014 52.7875 147.159 49.4594ZM129.937 144.972V141.865C130.118 138.055 131.942 128.051 132.483 125.304C133.366 120.853 133.566 119.851 136.132 110.187C136.132 109.927 137.676 105.616 137.676 105.616C137.704 105.541 137.715 105.462 137.71 105.382C137.704 105.302 137.681 105.225 137.643 105.155C137.606 105.085 137.553 105.023 137.49 104.975C137.426 104.927 137.353 104.892 137.275 104.874C137.055 104.874 131.842 103.591 131.261 101.927C130.679 100.263 130.559 98.2584 132.022 97.3762C132.076 97.3372 132.12 97.2859 132.15 97.2267C132.18 97.1674 132.196 97.1019 132.196 97.0354C132.196 96.9689 132.18 96.9033 132.15 96.8441C132.12 96.7848 132.076 96.7336 132.022 96.6946C131.382 96.1685 130.951 95.4304 130.807 94.6139C130.664 93.7975 130.817 92.9566 131.24 92.2437C131.702 91.3014 129.236 91.7625 132.163 85.0061C132.905 83.342 135.411 78.2295 137.115 77.6682C138.624 77.5209 140.147 77.6917 141.586 78.1694C144.099 78.5652 146.569 79.1961 148.964 80.054C149.116 80.1358 149.247 80.2517 149.347 80.3927C149.448 80.5336 149.514 80.6958 149.541 80.8666C149.568 81.0374 149.556 81.2121 149.504 81.3772C149.453 81.5423 149.364 81.6932 149.244 81.8183C148.364 82.3174 147.399 82.6504 146.397 82.8007C140.082 84.0437 141.205 82.6603 140.383 84.8056C137.97 84.6641 135.558 85.0969 133.346 86.0686C132.483 86.2491 132.844 86.8105 133.466 86.7102C136.152 85.8299 139.025 85.6845 141.786 86.2892C143.388 86.582 144.954 87.0457 146.458 87.6726C147.821 88.2263 149.031 89.0996 149.986 90.2188C150.157 90.6429 150.22 91.1025 150.171 91.557C150.122 92.0115 149.962 92.447 149.705 92.8251C149.224 93.5669 146.899 93.0657 146.016 92.8251C144.814 92.4642 143.55 92.1635 142.368 91.7826C140.704 91.2613 140.884 91.121 140.363 91.1611C138.524 91.4216 136.725 91.9133 135.01 92.6246C134.961 92.6302 134.914 92.6467 134.873 92.6731C134.832 92.6994 134.798 92.7347 134.772 92.7764C134.747 92.8182 134.731 92.8651 134.727 92.9138C134.722 92.9624 134.729 93.0114 134.746 93.0571C134.764 93.1028 134.791 93.1439 134.827 93.1773C134.862 93.2107 134.905 93.2356 134.952 93.2499C134.998 93.2643 135.048 93.2678 135.096 93.2602C135.144 93.2526 135.19 93.2341 135.23 93.206C136.766 92.7731 138.335 92.4713 139.922 92.3038C140.824 92.3038 140.242 92.3038 142.508 93.206C143.53 93.587 144.513 93.8877 145.595 94.2486C146.292 94.4872 147.011 94.6552 147.741 94.7498C149.024 95.9527 149.946 98.7596 148.222 99.2608C147.544 99.3776 146.848 99.294 146.217 99.0202C141.626 97.5166 144.733 96.4339 134.769 98.4789C134.688 98.489 134.613 98.5299 134.561 98.5933C134.509 98.6568 134.483 98.7378 134.488 98.8197C134.488 99.341 134.829 99.0202 140.343 98.8197C141.009 98.7527 141.681 98.7527 142.348 98.8197C144.072 99.7019 146.638 101.206 148.623 100.624C151.049 99.8422 150.969 97.1557 149.405 95.1909C148.843 94.5092 148.783 94.7097 149.264 94.6295C149.616 94.5913 149.956 94.4808 150.263 94.3048C150.571 94.1289 150.838 93.8913 151.049 93.607C151.524 92.952 151.789 92.1688 151.811 91.3601C151.832 90.5515 151.608 89.7552 151.169 89.076L154.537 90.0784C155.204 93.1837 155.149 96.4006 154.377 99.4813C154.162 100.233 153.88 100.965 153.535 101.667C152.071 104.754 151.53 104.854 151.71 105.436C154.496 114.495 156.792 123.697 158.587 133.003C151.029 135.65 137.175 141.744 129.937 144.972ZM288.584 284.292C297.165 284.653 315.61 285.314 324.071 285.054C323.489 287.58 323.128 289.184 323.028 289.545C318.998 289.545 292.955 285.034 288.584 284.292ZM327.319 283.269C321.945 284.533 252.195 281.806 246.221 279.26C246.842 274.769 252.697 249.527 253.879 244.375C259.142 245.985 264.616 246.796 270.119 246.78C272.124 247.823 275.432 249.627 277.417 250.57C277.196 252.274 276.655 256.304 277.858 257.507C279.061 258.71 306.748 268.874 331.028 271.721C330.048 275.649 328.809 279.506 327.319 283.269ZM253.238 235.012C252.315 234.732 251.461 234.26 250.732 233.628C250.211 233.067 250.391 231.363 250.732 230.561C250.918 230.171 251.249 229.869 251.654 229.719C252.144 229.506 252.665 229.377 253.198 229.338C253.357 229.334 253.511 229.282 253.64 229.188C253.769 229.094 253.866 228.964 253.918 228.813C253.97 228.663 253.976 228.5 253.933 228.346C253.89 228.193 253.802 228.056 253.679 227.955C252.506 226.967 251.689 225.622 251.353 224.125C251.353 223.023 251.774 221.88 253.539 220.877C255.544 221.038 261.558 226.01 264.345 223.143C267.132 220.276 263.844 213.559 266.951 212.998C270.059 212.437 271.623 221.78 272.164 222.802C273.968 226.311 278.82 228.817 281.587 231.704C279.916 237.68 278.578 243.744 277.577 249.868C273.567 247.723 270.6 245.858 270.3 245.858C266.109 245.718 254.862 244.555 251.935 241.568C251.414 241.166 251.058 240.588 250.932 239.942C250.807 239.296 250.921 238.627 251.253 238.059C251.466 237.682 251.754 237.353 252.099 237.091C252.443 236.829 252.838 236.64 253.258 236.535C253.43 236.493 253.582 236.395 253.69 236.255C253.799 236.115 253.856 235.943 253.854 235.766C253.852 235.589 253.79 235.418 253.678 235.281C253.566 235.144 253.411 235.049 253.238 235.012ZM275.572 168.249C271.848 167.893 268.106 167.745 264.365 167.808C263.884 167.808 263.483 168.049 263.343 168.51C263.002 169.793 257.328 211.494 257.047 213.539C255.844 193.491 254.601 172.379 253.679 156.901C260.656 168.028 261.257 169.131 262.36 168.349C266.078 165.292 269.594 161.997 272.886 158.485C273.487 160.711 274.45 164.339 275.572 168.249ZM293.917 161.212C292.554 159.207 291.21 157.202 290.709 156.46L297.185 140.161L293.917 161.212ZM298.588 138.196C306.172 139.759 313.565 142.132 320.642 145.273C320.341 146.215 316.472 158.044 311.841 172.159C309.716 171.898 297.546 170.414 293.797 170.013L298.588 138.196ZM290.388 158.686L293.556 163.457L292.554 169.873L289.446 169.472C289.907 165.121 290.228 160.991 290.388 158.686ZM345.743 179.837C345.718 182.448 345.463 185.051 344.982 187.616C338.105 185.852 278.119 171.096 272.024 174.564C268.976 176.329 258.952 217.469 257.989 221.178L257.268 220.817C260.435 198.543 264.646 169.332 264.646 169.251C271.482 168.47 337.343 175.928 345.743 179.837ZM310.758 221.759C306.267 221.459 288.444 220.577 284.695 223.063C284.113 223.464 283.873 223.544 281.808 230.962C279.141 228.135 274.67 225.469 273.166 222.321C272.485 220.937 271.382 210.833 266.711 211.615C260.415 212.677 268.455 225.649 259.152 221.639C259.754 219.093 269.618 176.629 272.365 175.066C278.179 171.758 341.593 187.897 349.613 190.162C349.152 195.054 343.257 221.158 342.175 225.93C331.792 223.935 321.302 222.542 310.758 221.759ZM279.883 81.5176C281.006 82.2794 280.965 84.1039 280.765 85.4271C279.362 94.3889 270.38 99.8222 264.144 91.2413C262.721 89.2364 261.618 82.8608 262.581 81.4574C263.222 80.6354 268.395 80.5953 269.437 80.5953C271.362 80.6153 278.88 80.9161 279.803 81.5176H279.883ZM256.005 82.9611C256.005 86.7303 254.742 92.9855 251.393 94.7899C246 97.5968 240.527 93.1459 240.387 87.3518C240.181 85.2365 240.282 83.1026 240.687 81.0163L240.888 80.9161C240.567 80.3547 254.661 80.1743 255.924 81.4374C255.967 81.9444 255.967 82.4541 255.924 82.9611H256.005ZM262.982 126.607C266.45 127.61 272.044 127.129 274.73 124.382C274.787 124.322 274.818 124.244 274.818 124.162C274.818 124.079 274.787 124.001 274.73 123.941C274.269 123.38 274.73 124.462 269.518 125.244C264.305 126.026 261.157 125.244 255.884 121.816C253.461 119.589 251.646 116.78 250.612 113.656C248.453 108.368 247.101 102.785 246.602 97.0955C248.489 97.4045 250.425 97.0877 252.115 96.1933C253.756 95.234 255.027 93.7512 255.724 91.9831C255.048 94.1017 254.492 96.2571 254.06 98.4388C253.966 98.7181 253.952 99.0181 254.019 99.305C254.087 99.5919 254.233 99.8543 254.441 100.063C255.827 100.91 257.459 101.263 259.072 101.065C259.119 101.077 259.169 101.078 259.217 101.069C259.265 101.059 259.31 101.038 259.348 101.008C259.387 100.978 259.418 100.939 259.44 100.896C259.461 100.852 259.472 100.803 259.472 100.754C259.472 100.706 259.461 100.657 259.44 100.613C259.418 100.569 259.387 100.531 259.348 100.501C259.31 100.471 259.265 100.45 259.217 100.44C259.169 100.43 259.119 100.432 259.072 100.444C257.883 100.311 256.735 99.9287 255.704 99.321C255.243 99.0002 255.443 99.2007 255.584 98.539C255.724 97.8774 258.33 88.3141 258.471 87.7127C259.092 87.7127 261.458 87.3919 261.458 86.8105C261.458 86.229 259.573 86.0686 258.872 86.1087C258.872 85.8481 258.992 85.6276 259.052 85.4271C259.084 85.3473 259.083 85.2582 259.049 85.1792C259.015 85.1002 258.951 85.038 258.872 85.0061C258.792 84.9742 258.703 84.9752 258.624 85.0091C258.545 85.0429 258.483 85.1067 258.451 85.1865C257.749 86.5498 258.23 86.0486 257.288 86.2892C257.649 84.4354 257.649 82.5292 257.288 80.6755C256.145 78.9112 249.268 79.3122 247.023 79.4525C248.166 72.7361 252.616 69.4281 255.343 64.055C256.107 62.8078 257.125 61.7354 258.33 60.9073C258.932 60.7469 260.115 62.2506 260.836 62.6115C261.558 62.9723 262.24 64.9572 262.841 65.6388C264.733 67.7922 266.912 69.6744 269.317 71.2325C271.322 72.6559 274.45 72.8765 275.813 74.7009C276.389 76.2523 276.668 77.8982 276.635 79.5528C274.049 79.3924 263.262 79.232 261.979 81.0765C260.816 82.5601 261.318 89.3366 263.022 91.943C267.312 98.4388 273.908 98.8398 279.061 92.9855C279.615 92.2945 280.086 91.5408 280.464 90.74C284.314 96.7547 287.341 100.343 287.481 107.401C287.642 116.342 285.116 131.159 294.799 133.023L296.463 137.614C288.444 157.783 288.865 156.52 288.865 156.721C288.865 156.921 288.484 162.736 287.782 169.392C283.933 168.991 280.344 168.65 277.156 168.389C276.916 167.567 273.928 156.941 273.989 156.721C274.289 155.718 272.786 153.754 271.623 152.009C267.262 145.696 262.501 139.669 257.368 133.965L262.982 126.607ZM255.924 134.507C256.265 135.028 270.7 150.907 272.465 156.741C269.221 160.336 265.717 163.687 261.979 166.765C260.636 165.001 257.007 159.187 253.559 153.754C252.937 143.268 252.516 135.97 252.416 134.447C253.539 134.366 254.802 134.427 255.844 134.507H255.924ZM184.33 154.556C182.044 150.546 178.877 124.482 179.618 120.473C179.618 120.112 179.618 119.991 181.303 119.53C188.48 117.666 213.661 115.52 216.308 116.423C218.313 120.332 222.703 145.854 221.661 149.784C219.616 151.428 190.224 155.578 184.25 154.556H184.33ZM185.733 220.516C183.428 215.985 181.724 186.935 182.866 185.832C184.57 184.188 216.568 182.784 219.596 183.967C221.601 188.178 224.448 214.041 223.265 217.549C220.538 219.594 190.465 221.599 185.653 220.516H185.733ZM231.505 186.915C232.948 186.534 243.013 183.967 244.216 183.246C245.078 182.744 246.06 184.368 229.199 138.095C231.204 136.251 248.727 133.885 251.494 134.747C251.494 135.85 254.12 182.644 256.185 220.196C255.203 219.714 253.779 218.973 252.877 219.474C249.108 221.479 248.867 224.807 251.654 228.055C251.134 228.182 250.65 228.43 250.243 228.778C249.835 229.127 249.515 229.565 249.308 230.06C248.987 230.812 248.85 231.631 248.91 232.447C248.969 233.263 249.222 234.053 249.649 234.751C250.117 235.199 250.651 235.571 251.233 235.854C250.634 236.255 250.161 236.818 249.87 237.478C249.607 238.046 249.451 238.658 249.409 239.282L231.505 186.915ZM281.407 311.679L255.223 314.586C255.343 313.623 258.29 290.387 259.233 282.508C264.686 282.989 271.262 283.41 278.299 283.791C279.462 298.246 281.507 308.23 281.326 311.679H281.407ZM282.79 311.518C283.071 306.947 279.301 284.031 279.281 283.831L281.286 283.931C288.103 285.194 305.666 288.302 307.57 288.622C308.212 295.078 309.816 310.115 310.197 313.202C280.304 311.278 283.532 311.438 282.69 311.518H282.79ZM389.169 268.614C387.164 270.218 357.713 272.904 351.638 271.581C349.292 267.03 347.628 237.999 348.771 236.896C350.495 235.232 382.493 233.869 385.48 235.032C387.365 239.222 390.272 265.185 389.089 268.614H389.169Z" fill="black"/>
<path fill-rule="evenodd" clip-rule="evenodd" d="M185.773 253.878C185.613 253.156 185.393 252.114 184.811 251.873C182.806 250.67 169.594 250.43 167.248 250.39C166.727 240.826 165.805 229.779 164.301 226.812C163.319 224.807 98.5207 224.607 96.2953 224.587C96.4557 213.8 96.4758 197.36 96.2953 186.494C99.1222 186.494 113.237 186.494 115.181 184.89C117.667 182.885 116.003 156.12 114.881 150.807C114.72 150.085 114.48 149.042 113.918 148.802C110.991 147.058 78.1511 146.637 75.8254 148.501C74.6024 149.524 74.1413 162.054 74.0812 163.638C69.49 163.638 41.1007 163.057 30.956 163.297V146.917C33.5824 146.917 49 147.338 51.0049 145.654C53.4308 143.649 52.6288 110.889 50.3232 109.566C48.0176 108.243 33.6225 107.822 31.1364 107.762C31.1364 104.915 30.9159 97.7374 30.8959 97.5569C40.1785 97.2161 64.6381 97.998 74.7227 97.998C74.7227 101.146 74.5423 112.353 75.8655 115.22C76.1863 115.902 77.4093 116.102 78.2112 116.242C84.5868 117.365 113.016 118.027 115.803 115.661C118.59 113.295 116.645 83.3222 115.021 80.0944C114.913 79.8623 114.748 79.662 114.54 79.513C111.512 77.7286 78.7124 77.5081 76.4469 79.2122C75.1437 80.3149 74.7027 94.6699 74.6626 96.3941C64.4176 96.3941 40.3188 95.6122 30.7756 95.953C30.7756 92.0836 30.5751 88.1741 30.5751 84.3247C33.422 84.3247 50.624 84.064 52.7692 82.1795C54.9144 80.2949 52.7692 49.9208 51.045 46.6328C50.9378 46.3998 50.7632 46.2042 50.5438 46.0714C47.4963 44.3673 14.6964 44.8885 12.4509 46.7731C10.7467 48.2567 10.446 78.2298 12.7316 82.8611C12.889 83.1197 13.1292 83.3175 13.4132 83.4225C15.6988 84.3848 26.3648 84.4049 28.8709 84.4049C28.8709 93.3667 29.2719 100.644 29.3521 107.802C27.3472 107.802 13.6739 107.501 12.1502 108.724C10.6264 109.947 8.78194 139.9 10.9071 144.812C11.2079 145.474 12.4308 145.714 13.2328 145.855C18.5462 146.622 23.9038 147.044 29.2719 147.118V176.71C27.3673 176.71 14.3154 176.469 12.8519 177.652C11.3883 178.835 9.4636 208.828 11.5888 213.74C11.8895 214.422 13.1125 214.642 13.9145 214.803C20.4103 216.046 48.7193 217.128 51.5061 214.803C54.2929 212.477 52.8494 182.424 51.3257 179.236C51.2172 178.999 51.0519 178.792 50.8445 178.635C48.6592 177.311 33.4621 176.87 30.7956 176.81V165.222C41.1809 164.961 68.4073 165.543 73.9007 165.563C73.9007 168.951 73.5799 181.722 75.0234 184.83C75.1545 185.099 75.3843 185.307 75.665 185.411C78.2513 186.594 91.7041 186.835 94.4508 186.855C94.7115 197.761 94.6914 214.241 94.4508 224.948C67.5051 224.807 39.557 225.088 33.9232 226.231C33.3218 226.351 32.3394 226.551 32.2993 227.394C32.2993 227.394 31.2166 244.716 30.7154 250.67C28.9311 250.67 17.2025 250.67 15.8391 251.873C14.4758 253.076 12.9722 283.109 15.1775 287.961C15.4783 288.623 16.7012 288.843 17.5032 288.984C23.8988 290.106 52.3081 290.768 55.0949 288.402C57.8817 286.037 55.9169 256.003 54.313 252.836C54.3934 252.644 54.4191 252.434 54.3873 252.229C54.3554 252.023 54.2672 251.831 54.1325 251.673C51.8269 250.289 35.3668 250.169 32.6401 250.149C33.1213 244.134 34.1638 227.394 34.1638 227.394C41.0205 225.389 155.079 225.629 163.058 227.654C164.281 230.581 165.063 240.626 165.705 250.229C163.7 250.229 148.463 250.109 146.879 251.432C145.295 252.755 144.092 282.849 146.217 287.52C146.358 287.789 146.594 287.997 146.879 288.102C150.427 289.705 183.247 290.427 186.134 287.961C186.631 287.36 186.919 286.615 186.956 285.836C187.899 279.741 187.077 259.893 185.773 253.878ZM76.868 79.4528C78.6523 77.9692 110.65 79.0318 113.618 80.4753C114.362 83.6396 114.792 86.8699 114.901 90.1188C102.049 88.8156 84.687 89.8181 75.8254 90.1188C75.8655 88.9159 76.1863 79.934 76.868 79.3927V79.4528ZM75.8054 91.2215C90.4009 91.6826 107.723 90.9208 114.961 91.001C115.181 94.5496 115.963 111.17 114.66 114.238C113.176 115.26 101.488 115.441 99.7036 115.461C95.3931 115.461 81.1785 115.461 77.0083 114.258C75.5648 110.749 75.7051 95.1711 75.8054 91.1614V91.2215ZM12.9722 46.9335C14.7565 45.3697 46.8147 45.6704 49.7418 46.9335C50.3996 49.1682 50.8164 51.4669 50.9848 53.7902C38.0337 53.4084 25.0729 54.0789 12.2303 55.7951C12.2504 55.0734 12.3907 47.4548 12.9722 46.9335ZM14.0347 81.7183C12.4108 78.0895 12.1903 61.2083 12.2303 56.4768C13.9145 56.2763 50.3232 54.4719 51.065 54.4719C51.5061 58.4817 53.0699 77.1873 51.6665 80.6958C48.98 82.6406 18.8064 83.0215 14.0347 81.7183ZM12.6514 108.844C14.4758 107.381 46.4538 108.965 49.401 110.448C50.0567 113.44 50.4193 116.489 50.4836 119.551C50.6841 119.551 22.1345 118.428 11.4885 118.769C11.5487 117.586 12.0299 109.326 12.6514 108.844ZM50.4435 213.099C48.2381 214.542 18.666 214.362 12.8118 212.497C11.3682 208.908 11.8093 192.448 12.0098 188.258C12.2103 188.258 39.6171 190.383 51.0851 189.04C51.2856 192.709 51.8269 209.971 50.4435 213.079V213.099ZM49.9623 179.296C50.6151 182.296 50.9843 185.35 51.065 188.418C51.2655 188.418 22.7761 187.296 12.0499 187.617C12.1393 184.394 12.4811 181.183 13.0724 178.013C13.2127 177.612 13.0724 177.532 14.8768 177.331C22.0543 176.529 47.3961 177.993 49.9623 179.276V179.296ZM12.2303 143.629C10.8069 140.041 11.248 123.701 11.4484 119.41C11.689 119.41 39.0157 121.535 50.5237 120.192C50.7242 123.881 51.2856 141.043 49.8822 144.251C47.1756 146.015 17.0621 145.173 12.2303 143.629ZM54.5736 263.221C54.8142 266.95 55.576 283.53 54.2729 286.678C52.1477 288.162 22.4553 288.462 16.6211 286.678C15.1775 283.19 15.3179 267.491 15.4181 263.301C28.3497 263.802 40.0983 263.221 54.5736 263.221ZM53.2303 252.916C53.972 256.074 54.4084 259.297 54.5335 262.539C41.7824 261.256 23.8186 262.279 15.4382 262.66C15.4382 261.396 15.8191 252.435 16.4807 251.893C18.2851 250.41 50.2631 251.472 53.2303 252.916ZM76.1863 148.762C78.0308 147.218 110.029 148.381 112.936 149.784C113.698 153.075 114.142 156.432 114.259 159.809C105.558 159.348 83.9051 157.964 75.1638 159.047C75.264 157.904 75.6049 149.303 76.1863 148.762ZM76.3868 183.507C74.9232 179.998 75.0836 163.959 75.2039 159.769C78.0308 159.488 98.4806 160.771 107.984 160.691C110.41 160.691 112.595 160.591 114.359 160.53C114.58 164.099 115.322 180.399 114.039 183.486C111.412 185.351 81.2587 185.05 76.3868 183.507ZM147.219 251.893C149.024 250.41 181.002 251.472 183.989 252.916C184.724 256.082 185.154 259.311 185.272 262.559C172.641 261.276 154.357 262.299 146.197 262.559C146.217 261.497 146.558 252.495 147.219 251.953V251.893ZM185.032 286.678C182.846 288.162 153.154 288.462 147.38 286.678C145.916 283.21 146.057 267.451 146.177 263.281C159.67 263.802 169.795 263.281 185.312 263.281C185.553 266.97 186.315 283.611 185.032 286.738V286.678Z" fill="black"/>
</svg>
